<?xml version="1.0" encoding="UTF-8"?>
<!--!
Font Awesome Free 6.4.2 by @fontawesome - https://fontawesome.com
License - https://fontawesome.com/license/free (Icons: CC BY 4.0, Fonts: SIL OFL 1.1, Code: MIT License)
Copyright 2023 Fonticons, Inc.
-->
<svg xmlns="http://www.w3.org/2000/svg" style="display: none;">
	<symbol id="home" iid="house" viewBox="0 0 576 512">
		<path d="M575.8 255.5c0 18-15 32.1-32 32.1h-32l.7 160.2c0 2.7-.2 5.4-.5 8.1V472c0 22.1-17.9 40-40 40H456c-1.1 0-2.2 0-3.3-.1c-1.4 .1-2.8 .1-4.2 .1H416 392c-22.1 0-40-17.9-40-40V448 384c0-17.7-14.3-32-32-32H256c-17.7 0-32 14.3-32 32v64 24c0 22.1-17.9 40-40 40H160 128.1c-1.5 0-3-.1-4.5-.2c-1.2 .1-2.4 .2-3.6 .2H104c-22.1 0-40-17.9-40-40V360c0-.9 0-1.9 .1-2.8V287.6H32c-18 0-32-14-32-32.1c0-9 3-17 10-24L266.4 8c7-7 15-8 22-8s15 2 21 7L564.8 231.5c8 7 12 15 11 24z"/>
	</symbol>
	<symbol id="calendar" iid="calendar" viewBox="0 0 448 512">
		<path d="M96 32V64H48C21.5 64 0 85.5 0 112v48H448V112c0-26.5-21.5-48-48-48H352V32c0-17.7-14.3-32-32-32s-32 14.3-32 32V64H160V32c0-17.7-14.3-32-32-32S96 14.3 96 32zM448 192H0V464c0 26.5 21.5 48 48 48H400c26.5 0 48-21.5 48-48V192z"/>
	</symbol>
	<symbol id="session" iid="calendar-week" viewBox="0 0 448 512">
		<path d="M128 0c17.7 0 32 14.3 32 32V64H288V32c0-17.7 14.3-32 32-32s32 14.3 32 32V64h48c26.5 0 48 21.5 48 48v48H0V112C0 85.5 21.5 64 48 64H96V32c0-17.7 14.3-32 32-32zM0 192H448V464c0 26.5-21.5 48-48 48H48c-26.5 0-48-21.5-48-48V192zm80 64c-8.8 0-16 7.2-16 16v64c0 8.8 7.2 16 16 16H368c8.8 0 16-7.2 16-16V272c0-8.8-7.2-16-16-16H80z"/>
	</symbol>
	<symbol id="semester" iid="calendar-day" viewBox="0 0 448 512">
		<path d="M128 0c17.7 0 32 14.3 32 32V64H288V32c0-17.7 14.3-32 32-32s32 14.3 32 32V64h48c26.5 0 48 21.5 48 48v48H0V112C0 85.5 21.5 64 48 64H96V32c0-17.7 14.3-32 32-32zM0 192H448V464c0 26.5-21.5 48-48 48H48c-26.5 0-48-21.5-48-48V192zm80 64c-8.8 0-16 7.2-16 16v96c0 8.8 7.2 16 16 16h96c8.8 0 16-7.2 16-16V272c0-8.8-7.2-16-16-16H80z"/>
	</symbol>
	<symbol id="university" iid="building-columns" viewBox="0 0 512 512">
		<path d="M243.4 2.6l-224 96c-14 6-21.8 21-18.7 35.8S16.8 160 32 160v8c0 13.3 10.7 24 24 24H456c13.3 0 24-10.7 24-24v-8c15.2 0 28.3-10.7 31.3-25.6s-4.8-29.9-18.7-35.8l-224-96c-8-3.4-17.2-3.4-25.2 0zM128 224H64V420.3c-.6 .3-1.2 .7-1.8 1.1l-48 32c-11.7 7.8-17 22.4-12.9 35.9S17.9 512 32 512H480c14.1 0 26.5-9.2 30.6-22.7s-1.1-28.1-12.9-35.9l-48-32c-.6-.4-1.2-.7-1.8-1.1V224H384V416H344V224H280V416H232V224H168V416H128V224zM256 64a32 32 0 1 1 0 64 32 32 0 1 1 0-64z"/>
	</symbol>
	<symbol id="basic-academic" iid="book" viewBox="0 0 448 512">
		<path d="M96 0C43 0 0 43 0 96V416c0 53 43 96 96 96H384h32c17.7 0 32-14.3 32-32s-14.3-32-32-32V384c17.7 0 32-14.3 32-32V32c0-17.7-14.3-32-32-32H384 96zm0 384H352v64H96c-17.7 0-32-14.3-32-32s14.3-32 32-32zm32-240c0-8.8 7.2-16 16-16H336c8.8 0 16 7.2 16 16s-7.2 16-16 16H144c-8.8 0-16-7.2-16-16zm16 48H336c8.8 0 16 7.2 16 16s-7.2 16-16 16H144c-8.8 0-16-7.2-16-16s7.2-16 16-16z"/>
	</symbol>
	<symbol id="level" iid="layer-group" viewBox="0 0 576 512">
		<path d="M264.5 5.2c14.9-6.9 32.1-6.9 47 0l218.6 101c8.5 3.9 13.9 12.4 13.9 21.8s-5.4 17.9-13.9 21.8l-218.6 101c-14.9 6.9-32.1 6.9-47 0L45.9 149.8C37.4 145.8 32 137.3 32 128s5.4-17.9 13.9-21.8L264.5 5.2zM476.9 209.6l53.2 24.6c8.5 3.9 13.9 12.4 13.9 21.8s-5.4 17.9-13.9 21.8l-218.6 101c-14.9 6.9-32.1 6.9-47 0L45.9 277.8C37.4 273.8 32 265.3 32 256s5.4-17.9 13.9-21.8l53.2-24.6 152 70.2c23.4 10.8 50.4 10.8 73.8 0l152-70.2zm-152 198.2l152-70.2 53.2 24.6c8.5 3.9 13.9 12.4 13.9 21.8s-5.4 17.9-13.9 21.8l-218.6 101c-14.9 6.9-32.1 6.9-47 0L45.9 405.8C37.4 401.8 32 393.3 32 384s5.4-17.9 13.9-21.8l53.2-24.6 152 70.2c23.4 10.8 50.4 10.8 73.8 0z"/>
	</symbol>
	<symbol id="course" iid="book-open-reader" viewBox="0 0 512 512">
		<path d="M160 96a96 96 0 1 1 192 0A96 96 0 1 1 160 96zm80 152V512l-48.4-24.2c-20.9-10.4-43.5-17-66.8-19.3l-96-9.6C12.5 457.2 0 443.5 0 427V224c0-17.7 14.3-32 32-32H62.3c63.6 0 125.6 19.6 177.7 56zm32 264V248c52.1-36.4 114.1-56 177.7-56H480c17.7 0 32 14.3 32 32V427c0 16.4-12.5 30.2-28.8 31.8l-96 9.6c-23.2 2.3-45.9 8.9-66.8 19.3L272 512z"/>
	</symbol>
	<symbol id="volume" iid="book-bookmark" viewBox="0 0 448 512">
		<path d="M0 96C0 43 43 0 96 0h96V190.7c0 13.4 15.5 20.9 26 12.5L272 160l54 43.2c10.5 8.4 26 .9 26-12.5V0h32 32c17.7 0 32 14.3 32 32V352c0 17.7-14.3 32-32 32v64c17.7 0 32 14.3 32 32s-14.3 32-32 32H384 96c-53 0-96-43-96-96V96zM64 416c0 17.7 14.3 32 32 32H352V384H96c-17.7 0-32 14.3-32 32z"/>
	</symbol>
	<symbol id="curriculum" iid="book-open" viewBox="0 0 576 512">
		<path d="M249.6 471.5c10.8 3.8 22.4-4.1 22.4-15.5V78.6c0-4.2-1.6-8.4-5-11C247.4 52 202.4 32 144 32C93.5 32 46.3 45.3 18.1 56.1C6.8 60.5 0 71.7 0 83.8V454.1c0 11.9 12.8 20.2 24.1 16.5C55.6 460.1 105.5 448 144 448c33.9 0 79 14 105.6 23.5zm76.8 0C353 462 398.1 448 432 448c38.5 0 88.4 12.1 119.9 22.6c11.3 3.8 24.1-4.6 24.1-16.5V83.8c0-12.1-6.8-23.3-18.1-27.6C529.7 45.3 482.5 32 432 32c-58.4 0-103.4 20-123 35.6c-3.3 2.6-5 6.8-5 11V456c0 11.4 11.7 19.3 22.4 15.5z"/>
	</symbol>
	<symbol id="grade" iid="gauge-high" viewBox="0 0 512 512">
		<path d="M0 256a256 256 0 1 1 512 0A256 256 0 1 1 0 256zM288 96a32 32 0 1 0 -64 0 32 32 0 1 0 64 0zM256 416c35.3 0 64-28.7 64-64c0-17.4-6.9-33.1-18.1-44.6L366 161.7c5.3-12.1-.2-26.3-12.3-31.6s-26.3 .2-31.6 12.3L257.9 288c-.6 0-1.3 0-1.9 0c-35.3 0-64 28.7-64 64s28.7 64 64 64zM176 144a32 32 0 1 0 -64 0 32 32 0 1 0 64 0zM96 288a32 32 0 1 0 0-64 32 32 0 1 0 0 64zm352-32a32 32 0 1 0 -64 0 32 32 0 1 0 64 0z"/>
	</symbol>
	<symbol id="volume-grade" iid="award" viewBox="0 0 384 512">
		<path d="M173.8 5.5c11-7.3 25.4-7.3 36.4 0L228 17.2c6 3.9 13 5.8 20.1 5.4l21.3-1.3c13.2-.8 25.6 6.4 31.5 18.2l9.6 19.1c3.2 6.4 8.4 11.5 14.7 14.7L344.5 83c11.8 5.9 19 18.3 18.2 31.5l-1.3 21.3c-.4 7.1 1.5 14.2 5.4 20.1l11.8 17.8c7.3 11 7.3 25.4 0 36.4L366.8 228c-3.9 6-5.8 13-5.4 20.1l1.3 21.3c.8 13.2-6.4 25.6-18.2 31.5l-19.1 9.6c-6.4 3.2-11.5 8.4-14.7 14.7L301 344.5c-5.9 11.8-18.3 19-31.5 18.2l-21.3-1.3c-7.1-.4-14.2 1.5-20.1 5.4l-17.8 11.8c-11 7.3-25.4 7.3-36.4 0L156 366.8c-6-3.9-13-5.8-20.1-5.4l-21.3 1.3c-13.2 .8-25.6-6.4-31.5-18.2l-9.6-19.1c-3.2-6.4-8.4-11.5-14.7-14.7L39.5 301c-11.8-5.9-19-18.3-18.2-31.5l1.3-21.3c.4-7.1-1.5-14.2-5.4-20.1L5.5 210.2c-7.3-11-7.3-25.4 0-36.4L17.2 156c3.9-6 5.8-13 5.4-20.1l-1.3-21.3c-.8-13.2 6.4-25.6 18.2-31.5l19.1-9.6C65 70.2 70.2 65 73.4 58.6L83 39.5c5.9-11.8 18.3-19 31.5-18.2l21.3 1.3c7.1 .4 14.2-1.5 20.1-5.4L173.8 5.5zM272 192a80 80 0 1 0 -160 0 80 80 0 1 0 160 0zM1.3 441.8L44.4 339.3c.2 .1 .3 .2 .4 .4l9.6 19.1c11.7 23.2 36 37.3 62 35.8l21.3-1.3c.2 0 .5 0 .7 .2l17.8 11.8c5.1 3.3 10.5 5.9 16.1 7.7l-37.6 89.3c-2.3 5.5-7.4 9.2-13.3 9.7s-11.6-2.2-14.8-7.2L74.4 455.5l-56.1 8.3c-5.7 .8-11.4-1.5-15-6s-4.3-10.7-2.1-16zm248 60.4L211.7 413c5.6-1.8 11-4.3 16.1-7.7l17.8-11.8c.2-.1 .4-.2 .7-.2l21.3 1.3c26 1.5 50.3-12.6 62-35.8l9.6-19.1c.1-.2 .2-.3 .4-.4l43.2 102.5c2.2 5.3 1.4 11.4-2.1 16s-9.3 6.9-15 6l-56.1-8.3-32.2 49.2c-3.2 5-8.9 7.7-14.8 7.2s-11-4.3-13.3-9.7z"/>
	</symbol>
	<symbol id="school" iid="award" viewBox="0 0 640 512">
		<path d="M337.8 5.4C327-1.8 313-1.8 302.2 5.4L166.3 96H48C21.5 96 0 117.5 0 144V464c0 26.5 21.5 48 48 48H592c26.5 0 48-21.5 48-48V144c0-26.5-21.5-48-48-48H473.7L337.8 5.4zM256 416c0-35.3 28.7-64 64-64s64 28.7 64 64v96H256V416zM96 192h32c8.8 0 16 7.2 16 16v64c0 8.8-7.2 16-16 16H96c-8.8 0-16-7.2-16-16V208c0-8.8 7.2-16 16-16zm400 16c0-8.8 7.2-16 16-16h32c8.8 0 16 7.2 16 16v64c0 8.8-7.2 16-16 16H512c-8.8 0-16-7.2-16-16V208zM96 320h32c8.8 0 16 7.2 16 16v64c0 8.8-7.2 16-16 16H96c-8.8 0-16-7.2-16-16V336c0-8.8 7.2-16 16-16zm400 16c0-8.8 7.2-16 16-16h32c8.8 0 16 7.2 16 16v64c0 8.8-7.2 16-16 16H512c-8.8 0-16-7.2-16-16V336zM232 176a88 88 0 1 1 176 0 88 88 0 1 1 -176 0zm88-48c-8.8 0-16 7.2-16 16v32c0 8.8 7.2 16 16 16h32c8.8 0 16-7.2 16-16s-7.2-16-16-16H336V144c0-8.8-7.2-16-16-16z"/>
	</symbol>
	<symbol id="college" iid="people-group" viewBox="0 0 640 512">
		<path d="M72 88a56 56 0 1 1 112 0A56 56 0 1 1 72 88zM64 245.7C54 256.9 48 271.8 48 288s6 31.1 16 42.3V245.7zm144.4-49.3C178.7 222.7 160 261.2 160 304c0 34.3 12 65.8 32 90.5V416c0 17.7-14.3 32-32 32H96c-17.7 0-32-14.3-32-32V389.2C26.2 371.2 0 332.7 0 288c0-61.9 50.1-112 112-112h32c24 0 46.2 7.5 64.4 20.3zM448 416V394.5c20-24.7 32-56.2 32-90.5c0-42.8-18.7-81.3-48.4-107.7C449.8 183.5 472 176 496 176h32c61.9 0 112 50.1 112 112c0 44.7-26.2 83.2-64 101.2V416c0 17.7-14.3 32-32 32H480c-17.7 0-32-14.3-32-32zm8-328a56 56 0 1 1 112 0A56 56 0 1 1 456 88zM576 245.7v84.7c10-11.3 16-26.1 16-42.3s-6-31.1-16-42.3zM320 32a64 64 0 1 1 0 128 64 64 0 1 1 0-128zM240 304c0 16.2 6 31 16 42.3V261.7c-10 11.3-16 26.1-16 42.3zm144-42.3v84.7c10-11.3 16-26.1 16-42.3s-6-31.1-16-42.3zM448 304c0 44.7-26.2 83.2-64 101.2V448c0 17.7-14.3 32-32 32H288c-17.7 0-32-14.3-32-32V405.2c-37.8-18-64-56.5-64-101.2c0-61.9 50.1-112 112-112h32c61.9 0 112 50.1 112 112z"/>
	</symbol>
	<symbol id="department" iid="people-line" viewBox="0 0 640 512">
		<path d="M360 72a40 40 0 1 0 -80 0 40 40 0 1 0 80 0zM144 208a40 40 0 1 0 0-80 40 40 0 1 0 0 80zM32 416c-17.7 0-32 14.3-32 32s14.3 32 32 32H608c17.7 0 32-14.3 32-32s-14.3-32-32-32H32zM496 208a40 40 0 1 0 0-80 40 40 0 1 0 0 80zM200 313.5l26.9 49.9c6.3 11.7 20.8 16 32.5 9.8s16-20.8 9.8-32.5l-36.3-67.5c1.7-1.7 3.2-3.6 4.3-5.8L264 217.5V272c0 17.7 14.3 32 32 32h48c17.7 0 32-14.3 32-32V217.5l26.9 49.9c1.2 2.2 2.6 4.1 4.3 5.8l-36.3 67.5c-6.3 11.7-1.9 26.2 9.8 32.5s26.2 1.9 32.5-9.8L440 313.5V352c0 17.7 14.3 32 32 32h48c17.7 0 32-14.3 32-32V313.5l26.9 49.9c6.3 11.7 20.8 16 32.5 9.8s16-20.8 9.8-32.5l-37.9-70.3c-15.3-28.5-45.1-46.3-77.5-46.3H486.2c-16.3 0-31.9 4.5-45.4 12.6l-33.6-62.3c-15.3-28.5-45.1-46.3-77.5-46.3H310.2c-32.4 0-62.1 17.8-77.5 46.3l-33.6 62.3c-13.5-8.1-29.1-12.6-45.4-12.6H134.2c-32.4 0-62.1 17.8-77.5 46.3L18.9 340.6c-6.3 11.7-1.9 26.2 9.8 32.5s26.2 1.9 32.5-9.8L88 313.5V352c0 17.7 14.3 32 32 32h48c17.7 0 32-14.3 32-32V313.5z"/>
	</symbol>
	<symbol id="program" iid="people-roof" viewBox="0 0 640 512">
		<path d="M335.5 4l288 160c15.4 8.6 21 28.1 12.4 43.5s-28.1 21-43.5 12.4L320 68.6 47.5 220c-15.4 8.6-34.9 3-43.5-12.4s-3-34.9 12.4-43.5L304.5 4c9.7-5.4 21.4-5.4 31.1 0zM320 160a40 40 0 1 1 0 80 40 40 0 1 1 0-80zM144 256a40 40 0 1 1 0 80 40 40 0 1 1 0-80zm312 40a40 40 0 1 1 80 0 40 40 0 1 1 -80 0zM226.9 491.4L200 441.5V480c0 17.7-14.3 32-32 32H120c-17.7 0-32-14.3-32-32V441.5L61.1 491.4c-6.3 11.7-20.8 16-32.5 9.8s-16-20.8-9.8-32.5l37.9-70.3c15.3-28.5 45.1-46.3 77.5-46.3h19.5c16.3 0 31.9 4.5 45.4 12.6l33.6-62.3c15.3-28.5 45.1-46.3 77.5-46.3h19.5c32.4 0 62.1 17.8 77.5 46.3l33.6 62.3c13.5-8.1 29.1-12.6 45.4-12.6h19.5c32.4 0 62.1 17.8 77.5 46.3l37.9 70.3c6.3 11.7 1.9 26.2-9.8 32.5s-26.2 1.9-32.5-9.8L552 441.5V480c0 17.7-14.3 32-32 32H472c-17.7 0-32-14.3-32-32V441.5l-26.9 49.9c-6.3 11.7-20.8 16-32.5 9.8s-16-20.8-9.8-32.5l36.3-67.5c-1.7-1.7-3.2-3.6-4.3-5.8L376 345.5V400c0 17.7-14.3 32-32 32H296c-17.7 0-32-14.3-32-32V345.5l-26.9 49.9c-1.2 2.2-2.6 4.1-4.3 5.8l36.3 67.5c6.3 11.7 1.9 26.2-9.8 32.5s-26.2 1.9-32.5-9.8z"/>
	</symbol>
	<symbol id="program-course" iid="file-contract" viewBox="0 0 384 512">
		<path d="M64 0C28.7 0 0 28.7 0 64V448c0 35.3 28.7 64 64 64H320c35.3 0 64-28.7 64-64V160H256c-17.7 0-32-14.3-32-32V0H64zM256 0V128H384L256 0zM80 64h64c8.8 0 16 7.2 16 16s-7.2 16-16 16H80c-8.8 0-16-7.2-16-16s7.2-16 16-16zm0 64h64c8.8 0 16 7.2 16 16s-7.2 16-16 16H80c-8.8 0-16-7.2-16-16s7.2-16 16-16zm54.2 253.8c-6.1 20.3-24.8 34.2-46 34.2H80c-8.8 0-16-7.2-16-16s7.2-16 16-16h8.2c7.1 0 13.3-4.6 15.3-11.4l14.9-49.5c3.4-11.3 13.8-19.1 25.6-19.1s22.2 7.7 25.6 19.1l11.6 38.6c7.4-6.2 16.8-9.7 26.8-9.7c15.9 0 30.4 9 37.5 23.2l4.4 8.8H304c8.8 0 16 7.2 16 16s-7.2 16-16 16H240c-6.1 0-11.6-3.4-14.3-8.8l-8.8-17.7c-1.7-3.4-5.1-5.5-8.8-5.5s-7.2 2.1-8.8 5.5l-8.8 17.7c-2.9 5.9-9.2 9.4-15.7 8.8s-12.1-5.1-13.9-11.3L144 349l-9.8 32.8z"/>
	</symbol>
	<symbol id="program-student" iid="user-tie" viewBox="0 0 448 512">
		<path d="M224 256A128 128 0 1 1 224 0a128 128 0 1 1 0 256zM209.1 359.2l-18.6-31c-6.4-10.7 1.3-24.2 13.7-24.2H224h19.7c12.4 0 20.1 13.6 13.7 24.2l-18.6 31 33.4 123.9 36-146.9c2-8.1 9.8-13.4 17.9-11.3c70.1 17.6 121.9 81 121.9 156.4c0 17-13.8 30.7-30.7 30.7H285.5c-2.1 0-4-.4-5.8-1.1l.3 1.1H168l.3-1.1c-1.8 .7-3.8 1.1-5.8 1.1H30.7C13.8 512 0 498.2 0 481.3c0-75.5 51.9-138.9 121.9-156.4c8.1-2 15.9 3.3 17.9 11.3l36 146.9 33.4-123.9z"/>
	</symbol>
	<symbol id="payments" iid="money-bill-1-wave" viewBox="0 0 576 512">
		<path d="M0 112.5V422.3c0 18 10.1 35 27 41.3c87 32.5 174 10.3 261-11.9c79.8-20.3 159.6-40.7 239.3-18.9c23 6.3 48.7-9.5 48.7-33.4V89.7c0-18-10.1-35-27-41.3C462 15.9 375 38.1 288 60.3C208.2 80.6 128.4 100.9 48.7 79.1C25.6 72.8 0 88.6 0 112.5zM128 416H64V352c35.3 0 64 28.7 64 64zM64 224V160h64c0 35.3-28.7 64-64 64zM448 352c0-35.3 28.7-64 64-64v64H448zm64-192c-35.3 0-64-28.7-64-64h64v64zM384 256c0 61.9-43 112-96 112s-96-50.1-96-112s43-112 96-112s96 50.1 96 112zM252 208c0 9.7 6.9 17.7 16 19.6V276h-4c-11 0-20 9-20 20s9 20 20 20h24 24c11 0 20-9 20-20s-9-20-20-20h-4V208c0-11-9-20-20-20H272c-11 0-20 9-20 20z"/>
	</symbol>
	<symbol id="program-fee" iid="money-check-dollar" viewBox="0 0 576 512">
		<path d="M64 64C28.7 64 0 92.7 0 128V384c0 35.3 28.7 64 64 64H512c35.3 0 64-28.7 64-64V128c0-35.3-28.7-64-64-64H64zM272 192H496c8.8 0 16 7.2 16 16s-7.2 16-16 16H272c-8.8 0-16-7.2-16-16s7.2-16 16-16zM256 304c0-8.8 7.2-16 16-16H496c8.8 0 16 7.2 16 16s-7.2 16-16 16H272c-8.8 0-16-7.2-16-16zM164 152v13.9c7.5 1.2 14.6 2.9 21.1 4.7c10.7 2.8 17 13.8 14.2 24.5s-13.8 17-24.5 14.2c-11-2.9-21.6-5-31.2-5.2c-7.9-.1-16 1.8-21.5 5c-4.8 2.8-6.2 5.6-6.2 9.3c0 1.8 .1 3.5 5.3 6.7c6.3 3.8 15.5 6.7 28.3 10.5l.7 .2c11.2 3.4 25.6 7.7 37.1 15c12.9 8.1 24.3 21.3 24.6 41.6c.3 20.9-10.5 36.1-24.8 45c-7.2 4.5-15.2 7.3-23.2 9V360c0 11-9 20-20 20s-20-9-20-20V345.4c-10.3-2.2-20-5.5-28.2-8.4l0 0 0 0c-2.1-.7-4.1-1.4-6.1-2.1c-10.5-3.5-16.1-14.8-12.6-25.3s14.8-16.1 25.3-12.6c2.5 .8 4.9 1.7 7.2 2.4c13.6 4.6 24 8.1 35.1 8.5c8.6 .3 16.5-1.6 21.4-4.7c4.1-2.5 6-5.5 5.9-10.5c0-2.9-.8-5-5.9-8.2c-6.3-4-15.4-6.9-28-10.7l-1.7-.5c-10.9-3.3-24.6-7.4-35.6-14c-12.7-7.7-24.6-20.5-24.7-40.7c-.1-21.1 11.8-35.7 25.8-43.9c6.9-4.1 14.5-6.8 22.2-8.5V152c0-11 9-20 20-20s20 9 20 20z"/>
	</symbol>
	<symbol id="user" iid="user-group" viewBox="0 0 640 512">
		<path d="M96 128a128 128 0 1 1 256 0A128 128 0 1 1 96 128zM0 482.3C0 383.8 79.8 304 178.3 304h91.4C368.2 304 448 383.8 448 482.3c0 16.4-13.3 29.7-29.7 29.7H29.7C13.3 512 0 498.7 0 482.3zM609.3 512H471.4c5.4-9.4 8.6-20.3 8.6-32v-8c0-60.7-27.1-115.2-69.8-151.8c2.4-.1 4.7-.2 7.1-.2h61.4C567.8 320 640 392.2 640 481.3c0 17-13.8 30.7-30.7 30.7zM432 256c-31 0-59-12.6-79.3-32.9C372.4 196.5 384 163.6 384 128c0-26.8-6.6-52.1-18.3-74.3C384.3 40.1 407.2 32 432 32c61.9 0 112 50.1 112 112s-50.1 112-112 112z"/>
	</symbol>
	<symbol id="person" iid="user" viewBox="0 0 448 512">
		<path d="M224 256A128 128 0 1 0 224 0a128 128 0 1 0 0 256zm-45.7 48C79.8 304 0 383.8 0 482.3C0 498.7 13.3 512 29.7 512H418.3c16.4 0 29.7-13.3 29.7-29.7C448 383.8 368.2 304 269.7 304H178.3z"/>
	</symbol>
	<symbol id="students" iid="user-graduate" viewBox="0 0 448 512">
		<path d="M219.3 .5c3.1-.6 6.3-.6 9.4 0l200 40C439.9 42.7 448 52.6 448 64s-8.1 21.3-19.3 23.5L352 102.9V160c0 70.7-57.3 128-128 128s-128-57.3-128-128V102.9L48 93.3v65.1l15.7 78.4c.9 4.7-.3 9.6-3.3 13.3s-7.6 5.9-12.4 5.9H16c-4.8 0-9.3-2.1-12.4-5.9s-4.3-8.6-3.3-13.3L16 158.4V86.6C6.5 83.3 0 74.3 0 64C0 52.6 8.1 42.7 19.3 40.5l200-40zM111.9 327.7c10.5-3.4 21.8 .4 29.4 8.5l71 75.5c6.3 6.7 17 6.7 23.3 0l71-75.5c7.6-8.1 18.9-11.9 29.4-8.5C401 348.6 448 409.4 448 481.3c0 17-13.8 30.7-30.7 30.7H30.7C13.8 512 0 498.2 0 481.3c0-71.9 47-132.7 111.9-153.6z"/>
	</symbol>
	<symbol id="student" iid="id-badge" viewBox="0 0 384 512">
		<path d="M64 0C28.7 0 0 28.7 0 64V448c0 35.3 28.7 64 64 64H320c35.3 0 64-28.7 64-64V64c0-35.3-28.7-64-64-64H64zm96 320h64c44.2 0 80 35.8 80 80c0 8.8-7.2 16-16 16H96c-8.8 0-16-7.2-16-16c0-44.2 35.8-80 80-80zm-32-96a64 64 0 1 1 128 0 64 64 0 1 1 -128 0zM144 64h96c8.8 0 16 7.2 16 16s-7.2 16-16 16H144c-8.8 0-16-7.2-16-16s7.2-16 16-16z"/>
	</symbol>
	<symbol id="student-program" iid="people-roof" viewBox="0 0 640 512">
		<path d="M335.5 4l288 160c15.4 8.6 21 28.1 12.4 43.5s-28.1 21-43.5 12.4L320 68.6 47.5 220c-15.4 8.6-34.9 3-43.5-12.4s-3-34.9 12.4-43.5L304.5 4c9.7-5.4 21.4-5.4 31.1 0zM320 160a40 40 0 1 1 0 80 40 40 0 1 1 0-80zM144 256a40 40 0 1 1 0 80 40 40 0 1 1 0-80zm312 40a40 40 0 1 1 80 0 40 40 0 1 1 -80 0zM226.9 491.4L200 441.5V480c0 17.7-14.3 32-32 32H120c-17.7 0-32-14.3-32-32V441.5L61.1 491.4c-6.3 11.7-20.8 16-32.5 9.8s-16-20.8-9.8-32.5l37.9-70.3c15.3-28.5 45.1-46.3 77.5-46.3h19.5c16.3 0 31.9 4.5 45.4 12.6l33.6-62.3c15.3-28.5 45.1-46.3 77.5-46.3h19.5c32.4 0 62.1 17.8 77.5 46.3l33.6 62.3c13.5-8.1 29.1-12.6 45.4-12.6h19.5c32.4 0 62.1 17.8 77.5 46.3l37.9 70.3c6.3 11.7 1.9 26.2-9.8 32.5s-26.2 1.9-32.5-9.8L552 441.5V480c0 17.7-14.3 32-32 32H472c-17.7 0-32-14.3-32-32V441.5l-26.9 49.9c-6.3 11.7-20.8 16-32.5 9.8s-16-20.8-9.8-32.5l36.3-67.5c-1.7-1.7-3.2-3.6-4.3-5.8L376 345.5V400c0 17.7-14.3 32-32 32H296c-17.7 0-32-14.3-32-32V345.5l-26.9 49.9c-1.2 2.2-2.6 4.1-4.3 5.8l36.3 67.5c6.3 11.7 1.9 26.2-9.8 32.5s-26.2 1.9-32.5-9.8z"/>
	</symbol>
	<symbol id="course-registration" iid="chalkboard-user" viewBox="0 0 640 512">
		<path d="M160 64c0-35.3 28.7-64 64-64H576c35.3 0 64 28.7 64 64V352c0 35.3-28.7 64-64 64H336.8c-11.8-25.5-29.9-47.5-52.4-64H384V320c0-17.7 14.3-32 32-32h64c17.7 0 32 14.3 32 32v32h64V64L224 64v49.1C205.2 102.2 183.3 96 160 96V64zm0 64a96 96 0 1 1 0 192 96 96 0 1 1 0-192zM133.3 352h53.3C260.3 352 320 411.7 320 485.3c0 14.7-11.9 26.7-26.7 26.7H26.7C11.9 512 0 500.1 0 485.3C0 411.7 59.7 352 133.3 352z"/>
	</symbol>
	<symbol id="student-course" iid="book-open-reader" viewBox="0 0 512 512">
		<path d="M160 96a96 96 0 1 1 192 0A96 96 0 1 1 160 96zm80 152V512l-48.4-24.2c-20.9-10.4-43.5-17-66.8-19.3l-96-9.6C12.5 457.2 0 443.5 0 427V224c0-17.7 14.3-32 32-32H62.3c63.6 0 125.6 19.6 177.7 56zm32 264V248c52.1-36.4 114.1-56 177.7-56H480c17.7 0 32 14.3 32 32V427c0 16.4-12.5 30.2-28.8 31.8l-96 9.6c-23.2 2.3-45.9 8.9-66.8 19.3L272 512z"/>
	</symbol>
	<symbol id="student-course-grade" iid="graduation-cap" viewBox="0 0 640 512">
		<path d="M320 32c-8.1 0-16.1 1.4-23.7 4.1L15.8 137.4C6.3 140.9 0 149.9 0 160s6.3 19.1 15.8 22.6l57.9 20.9C57.3 229.3 48 259.8 48 291.9v28.1c0 28.4-10.8 57.7-22.3 80.8c-6.5 13-13.9 25.8-22.5 37.6C0 442.7-.9 448.3 .9 453.4s6 8.9 11.2 10.2l64 16c4.2 1.1 8.7 .3 12.4-2s6.3-6.1 7.1-10.4c8.6-42.8 4.3-81.2-2.1-108.7C90.3 344.3 86 329.8 80 316.5V291.9c0-30.2 10.2-58.7 27.9-81.5c12.9-15.5 29.6-28 49.2-35.7l157-61.7c8.2-3.2 17.5 .8 20.7 9s-.8 17.5-9 20.7l-157 61.7c-12.4 4.9-23.3 12.4-32.2 21.6l159.6 57.6c7.6 2.7 15.6 4.1 23.7 4.1s16.1-1.4 23.7-4.1L624.2 182.6c9.5-3.4 15.8-12.5 15.8-22.6s-6.3-19.1-15.8-22.6L343.7 36.1C336.1 33.4 328.1 32 320 32zM128 408c0 35.3 86 72 192 72s192-36.7 192-72L496.7 262.6 354.5 314c-11.1 4-22.8 6-34.5 6s-23.5-2-34.5-6L143.3 262.6 128 408z"/>
	</symbol>
	<symbol id="student-payment" iid="file-invoice-dollar" viewBox="0 0 384 512">
		<path d="M64 0C28.7 0 0 28.7 0 64V448c0 35.3 28.7 64 64 64H320c35.3 0 64-28.7 64-64V160H256c-17.7 0-32-14.3-32-32V0H64zM256 0V128H384L256 0zM64 80c0-8.8 7.2-16 16-16h64c8.8 0 16 7.2 16 16s-7.2 16-16 16H80c-8.8 0-16-7.2-16-16zm0 64c0-8.8 7.2-16 16-16h64c8.8 0 16 7.2 16 16s-7.2 16-16 16H80c-8.8 0-16-7.2-16-16zm128 72c8.8 0 16 7.2 16 16v17.3c8.5 1.2 16.7 3.1 24.1 5.1c8.5 2.3 13.6 11 11.3 19.6s-11 13.6-19.6 11.3c-11.1-3-22-5.2-32.1-5.3c-8.4-.1-17.4 1.8-23.6 5.5c-5.7 3.4-8.1 7.3-8.1 12.8c0 3.7 1.3 6.5 7.3 10.1c6.9 4.1 16.6 7.1 29.2 10.9l.5 .1 0 0 0 0c11.3 3.4 25.3 7.6 36.3 14.6c12.1 7.6 22.4 19.7 22.7 38.2c.3 19.3-9.6 33.3-22.9 41.6c-7.7 4.8-16.4 7.6-25.1 9.1V440c0 8.8-7.2 16-16 16s-16-7.2-16-16V422.2c-11.2-2.1-21.7-5.7-30.9-8.9l0 0c-2.1-.7-4.2-1.4-6.2-2.1c-8.4-2.8-12.9-11.9-10.1-20.2s11.9-12.9 20.2-10.1c2.5 .8 4.8 1.6 7.1 2.4l0 0 0 0 0 0c13.6 4.6 24.6 8.4 36.3 8.7c9.1 .3 17.9-1.7 23.7-5.3c5.1-3.2 7.9-7.3 7.8-14c-.1-4.6-1.8-7.8-7.7-11.6c-6.8-4.3-16.5-7.4-29-11.2l-1.6-.5 0 0c-11-3.3-24.3-7.3-34.8-13.7c-12-7.2-22.6-18.9-22.7-37.3c-.1-19.4 10.8-32.8 23.8-40.5c7.5-4.4 15.8-7.2 24.1-8.7V232c0-8.8 7.2-16 16-16z"/>
	</symbol>
	<symbol id="role" iid="users" viewBox="0 0 640 512">
		<path d="M144 0a80 80 0 1 1 0 160A80 80 0 1 1 144 0zM512 0a80 80 0 1 1 0 160A80 80 0 1 1 512 0zM0 298.7C0 239.8 47.8 192 106.7 192h42.7c15.9 0 31 3.5 44.6 9.7c-1.3 7.2-1.9 14.7-1.9 22.3c0 38.2 16.8 72.5 43.3 96c-.2 0-.4 0-.7 0H21.3C9.6 320 0 310.4 0 298.7zM405.3 320c-.2 0-.4 0-.7 0c26.6-23.5 43.3-57.8 43.3-96c0-7.6-.7-15-1.9-22.3c13.6-6.3 28.7-9.7 44.6-9.7h42.7C592.2 192 640 239.8 640 298.7c0 11.8-9.6 21.3-21.3 21.3H405.3zM224 224a96 96 0 1 1 192 0 96 96 0 1 1 -192 0zM128 485.3C128 411.7 187.7 352 261.3 352H378.7C452.3 352 512 411.7 512 485.3c0 14.7-11.9 26.7-26.7 26.7H154.7c-14.7 0-26.7-11.9-26.7-26.7z"/>
	</symbol>


	<symbol xmlns="http://www.w3.org/2000/svg" viewBox="0 0 384 512" id="play">
		<path d="M73 39c-14.8-9.1-33.4-9.4-48.5-.9S0 62.6 0 80V432c0 17.4 9.4 33.4 24.5 41.9s33.7 8.1 48.5-.9L361 297c14.3-8.7 23-24.2 23-41s-8.7-32.2-23-41L73 39z"/>
	</symbol>
	<symbol xmlns="http://www.w3.org/2000/svg" viewBox="0 0 320 512" id="pause">
		<path d="M48 64C21.5 64 0 85.5 0 112V400c0 26.5 21.5 48 48 48H80c26.5 0 48-21.5 48-48V112c0-26.5-21.5-48-48-48H48zm192 0c-26.5 0-48 21.5-48 48V400c0 26.5 21.5 48 48 48h32c26.5 0 48-21.5 48-48V112c0-26.5-21.5-48-48-48H240z"/>
	</symbol>
	<symbol xmlns="http://www.w3.org/2000/svg" id="stop" viewBox="0 0 384 512">
		<path d="M0 128C0 92.7 28.7 64 64 64H320c35.3 0 64 28.7 64 64V384c0 35.3-28.7 64-64 64H64c-35.3 0-64-28.7-64-64V128z"/>
	</symbol>
	<symbol xmlns="http://www.w3.org/2000/svg" viewBox="0 0 448 512" id="bars-solid">
		<path d="M0 96C0 78.3 14.3 64 32 64H416c17.7 0 32 14.3 32 32s-14.3 32-32 32H32C14.3 128 0 113.7 0 96zM0 256c0-17.7 14.3-32 32-32H416c17.7 0 32 14.3 32 32s-14.3 32-32 32H32c-17.7 0-32-14.3-32-32zM448 416c0 17.7-14.3 32-32 32H32c-17.7 0-32-14.3-32-32s14.3-32 32-32H416c17.7 0 32 14.3 32 32z"></path>
	</symbol>
	<symbol xmlns="http://www.w3.org/2000/svg" viewBox="0 0 512 512" id="magnifying-glass-solid">
		<path d="M416 208c0 45.9-14.9 88.3-40 122.7L502.6 457.4c12.5 12.5 12.5 32.8 0 45.3s-32.8 12.5-45.3 0L330.7 376c-34.4 25.2-76.8 40-122.7 40C93.1 416 0 322.9 0 208S93.1 0 208 0S416 93.1 416 208zM208 352c79.5 0 144-64.5 144-144s-64.5-144-144-144S64 128.5 64 208s64.5 144 144 144z"></path>
	</symbol>
	<symbol xmlns="http://www.w3.org/2000/svg" viewBox="0 0 512 512" id="ban-solid">
		<path d="M367.2 412.5L99.5 144.8C77.1 176.1 64 214.5 64 256c0 106 86 192 192 192c41.5 0 79.9-13.1 111.2-35.5zm45.3-45.3C434.9 335.9 448 297.5 448 256c0-106-86-192-192-192c-41.5 0-79.9 13.1-111.2 35.5L412.5 367.2zM512 256c0 141.4-114.6 256-256 256S0 397.4 0 256S114.6 0 256 0S512 114.6 512 256z"></path>
	</symbol>
	<symbol xmlns="http://www.w3.org/2000/svg" viewBox="0 0 512 512" id="power-off-solid">
		<path d="M288 32c0-17.7-14.3-32-32-32s-32 14.3-32 32V256c0 17.7 14.3 32 32 32s32-14.3 32-32V32zM143.5 120.6c13.6-11.3 15.4-31.5 4.1-45.1s-31.5-15.4-45.1-4.1C49.7 115.4 16 181.8 16 256c0 132.5 107.5 240 240 240s240-107.5 240-240c0-74.2-33.8-140.6-86.6-184.6c-13.6-11.3-33.8-9.4-45.1 4.1s-9.4 33.8 4.1 45.1c38.9 32.3 63.5 81 63.5 135.4c0 97.2-78.8 176-176 176s-176-78.8-176-176c0-54.4 24.7-103.1 63.5-135.4z"></path>
	</symbol>
	<symbol xmlns="http://www.w3.org/2000/svg" viewBox="0 0 448 512" id="trash-solid">
		<path d="M135.2 17.7L128 32H32C14.3 32 0 46.3 0 64S14.3 96 32 96H416c17.7 0 32-14.3 32-32s-14.3-32-32-32H320l-7.2-14.3C307.4 6.8 296.3 0 284.2 0H163.8c-12.1 0-23.2 6.8-28.6 17.7zM416 128H32L53.2 467c1.6 25.3 22.6 45 47.9 45H346.9c25.3 0 46.3-19.7 47.9-45L416 128z"></path>
	</symbol>
	<symbol xmlns="http://www.w3.org/2000/svg" viewBox="0 0 512 512" id="pencil-solid">
		<path d="M421.7 220.3l-11.3 11.3-22.6 22.6-205 205c-6.6 6.6-14.8 11.5-23.8 14.1L30.8 511c-8.4 2.5-17.5 .2-23.7-6.1S-1.5 489.7 1 481.2L38.7 353.1c2.6-9 7.5-17.2 14.1-23.8l205-205 22.6-22.6 11.3-11.3 33.9 33.9 62.1 62.1 33.9 33.9zM96 353.9l-9.3 9.3c-.9 .9-1.6 2.1-2 3.4l-25.3 86 86-25.3c1.3-.4 2.5-1.1 3.4-2l9.3-9.3H112c-8.8 0-16-7.2-16-16V353.9zM453.3 19.3l39.4 39.4c25 25 25 65.5 0 90.5l-14.5 14.5-22.6 22.6-11.3 11.3-33.9-33.9-62.1-62.1L314.3 67.7l11.3-11.3 22.6-22.6 14.5-14.5c25-25 65.5-25 90.5 0z"></path>
	</symbol>
	<symbol xmlns="http://www.w3.org/2000/svg" viewBox="0 0 448 512" id="plus-solid">
		<path d="M256 80c0-17.7-14.3-32-32-32s-32 14.3-32 32V224H48c-17.7 0-32 14.3-32 32s14.3 32 32 32H192V432c0 17.7 14.3 32 32 32s32-14.3 32-32V288H400c17.7 0 32-14.3 32-32s-14.3-32-32-32H256V80z"></path>
	</symbol>
	<symbol xmlns="http://www.w3.org/2000/svg" viewBox="0 0 448 512" id="floppy-disk-solid">
		<path d="M64 32C28.7 32 0 60.7 0 96V416c0 35.3 28.7 64 64 64H384c35.3 0 64-28.7 64-64V173.3c0-17-6.7-33.3-18.7-45.3L352 50.7C340 38.7 323.7 32 306.7 32H64zm0 96c0-17.7 14.3-32 32-32H288c17.7 0 32 14.3 32 32v64c0 17.7-14.3 32-32 32H96c-17.7 0-32-14.3-32-32V128zM224 416c-35.3 0-64-28.7-64-64s28.7-64 64-64s64 28.7 64 64s-28.7 64-64 64z"></path>
	</symbol>
	<symbol xmlns="http://www.w3.org/2000/svg" viewBox="0 0 320 512" id="xmark-solid">
		<path d="M310.6 150.6c12.5-12.5 12.5-32.8 0-45.3s-32.8-12.5-45.3 0L160 210.7 54.6 105.4c-12.5-12.5-32.8-12.5-45.3 0s-12.5 32.8 0 45.3L114.7 256 9.4 361.4c-12.5 12.5-12.5 32.8 0 45.3s32.8 12.5 45.3 0L160 301.3 265.4 406.6c12.5 12.5 32.8 12.5 45.3 0s12.5-32.8 0-45.3L205.3 256 310.6 150.6z"></path>
	</symbol>
	<symbol xmlns="http://www.w3.org/2000/svg" viewBox="0 0 384 512" id="file-pdf">
		<path d="M64 0C28.7 0 0 28.7 0 64V448c0 35.3 28.7 64 64 64H320c35.3 0 64-28.7 64-64V160H256c-17.7 0-32-14.3-32-32V0H64zM256 0V128H384L256 0zM64 224H88c30.9 0 56 25.1 56 56s-25.1 56-56 56H80v32c0 8.8-7.2 16-16 16s-16-7.2-16-16V320 240c0-8.8 7.2-16 16-16zm24 80c13.3 0 24-10.7 24-24s-10.7-24-24-24H80v48h8zm72-64c0-8.8 7.2-16 16-16h24c26.5 0 48 21.5 48 48v64c0 26.5-21.5 48-48 48H176c-8.8 0-16-7.2-16-16V240zm32 112h8c8.8 0 16-7.2 16-16V272c0-8.8-7.2-16-16-16h-8v96zm96-128h48c8.8 0 16 7.2 16 16s-7.2 16-16 16H304v32h32c8.8 0 16 7.2 16 16s-7.2 16-16 16H304v48c0 8.8-7.2 16-16 16s-16-7.2-16-16V304 240c0-8.8 7.2-16 16-16z"/>
	</symbol>
	<symbol xmlns="http://www.w3.org/2000/svg" viewBox="0 0 384 512" id="file-excel">
		<path d="M64 0C28.7 0 0 28.7 0 64V448c0 35.3 28.7 64 64 64H320c35.3 0 64-28.7 64-64V160H256c-17.7 0-32-14.3-32-32V0H64zM256 0V128H384L256 0zM155.7 250.2L192 302.1l36.3-51.9c7.6-10.9 22.6-13.5 33.4-5.9s13.5 22.6 5.9 33.4L221.3 344l46.4 66.2c7.6 10.9 5 25.8-5.9 33.4s-25.8 5-33.4-5.9L192 385.8l-36.3 51.9c-7.6 10.9-22.6 13.5-33.4 5.9s-13.5-22.6-5.9-33.4L162.7 344l-46.4-66.2c-7.6-10.9-5-25.8 5.9-33.4s25.8-5 33.4 5.9z"/>
	</symbol>
	<symbol xmlns="http://www.w3.org/2000/svg" viewBox="0 0 384 512" id="file-word">
		<path d="M64 0C28.7 0 0 28.7 0 64V448c0 35.3 28.7 64 64 64H320c35.3 0 64-28.7 64-64V160H256c-17.7 0-32-14.3-32-32V0H64zM256 0V128H384L256 0zM111 257.1l26.8 89.2 31.6-90.3c3.4-9.6 12.5-16.1 22.7-16.1s19.3 6.4 22.7 16.1l31.6 90.3L273 257.1c3.8-12.7 17.2-19.9 29.9-16.1s19.9 17.2 16.1 29.9l-48 160c-3 10-12.1 16.9-22.4 17.1s-19.8-6.2-23.2-16.1L192 336.6l-33.3 95.3c-3.4 9.8-12.8 16.3-23.2 16.1s-19.5-7.1-22.4-17.1l-48-160c-3.8-12.7 3.4-26.1 16.1-29.9s26.1 3.4 29.9 16.1z"/>
	</symbol>
	<symbol xmlns="http://www.w3.org/2000/svg" viewBox="0 0 384 512" id="file-csv">
		<path d="M64 0C28.7 0 0 28.7 0 64V448c0 35.3 28.7 64 64 64H320c35.3 0 64-28.7 64-64V160H256c-17.7 0-32-14.3-32-32V0H64zM256 0V128H384L256 0zM80 224H96c22.1 0 40 17.9 40 40v8c0 8.8-7.2 16-16 16s-16-7.2-16-16v-8c0-4.4-3.6-8-8-8H80c-4.4 0-8 3.6-8 8v80c0 4.4 3.6 8 8 8H96c4.4 0 8-3.6 8-8v-8c0-8.8 7.2-16 16-16s16 7.2 16 16v8c0 22.1-17.9 40-40 40H80c-22.1 0-40-17.9-40-40V264c0-22.1 17.9-40 40-40zm72 46.4c0-25.6 20.8-46.4 46.4-46.4H216c8.8 0 16 7.2 16 16s-7.2 16-16 16H198.4c-7.9 0-14.4 6.4-14.4 14.4c0 5.2 2.8 9.9 7.2 12.5l25.4 14.5c14.4 8.3 23.4 23.6 23.4 40.3c0 25.6-20.8 46.4-46.4 46.4H168c-8.8 0-16-7.2-16-16s7.2-16 16-16h25.6c7.9 0 14.4-6.4 14.4-14.4c0-5.2-2.8-9.9-7.2-12.5l-25.4-14.5C160.9 302.4 152 287 152 270.4zM280 240v31.6c0 23 5.5 45.6 16 66c10.5-20.3 16-42.9 16-66V240c0-8.8 7.2-16 16-16s16 7.2 16 16v31.6c0 34.7-10.3 68.7-29.6 97.6l-5.1 7.7c-3 4.5-8 7.1-13.3 7.1s-10.3-2.7-13.3-7.1l-5.1-7.7c-19.3-28.9-29.6-62.9-29.6-97.6V240c0-8.8 7.2-16 16-16s16 7.2 16 16z"/>
	</symbol>
	<symbol xmlns="http://www.w3.org/2000/svg" viewBox="0 0 384 512" id="file-powerpoint">
		<path d="M64 0C28.7 0 0 28.7 0 64V448c0 35.3 28.7 64 64 64H320c35.3 0 64-28.7 64-64V160H256c-17.7 0-32-14.3-32-32V0H64zM256 0V128H384L256 0zM136 240h68c42 0 76 34 76 76s-34 76-76 76H160v32c0 13.3-10.7 24-24 24s-24-10.7-24-24V368 264c0-13.3 10.7-24 24-24zm68 104c15.5 0 28-12.5 28-28s-12.5-28-28-28H160v56h44z"/>
	</symbol>
	<symbol xmlns="http://www.w3.org/2000/svg" viewBox="0 0 384 512" id="file-image">
		<path d="M64 0C28.7 0 0 28.7 0 64V448c0 35.3 28.7 64 64 64H320c35.3 0 64-28.7 64-64V160H256c-17.7 0-32-14.3-32-32V0H64zM256 0V128H384L256 0zM128 256c0 17.7-14.3 32-32 32s-32-14.3-32-32s14.3-32 32-32s32 14.3 32 32zm88 32c5.3 0 10.2 2.6 13.2 6.9l88 128c3.4 4.9 3.7 11.3 1 16.5s-8.2 8.6-14.2 8.6H216 176 128 80c-5.8 0-11.1-3.1-13.9-8.1s-2.8-11.2 .2-16.1l48-80c2.9-4.8 8.1-7.8 13.7-7.8s10.8 2.9 13.7 7.8l12.8 21.4 48.3-70.2c3-4.3 7.9-6.9 13.2-6.9z"/>
	</symbol>
	<symbol xmlns="http://www.w3.org/2000/svg" viewBox="0 0 384 512" id="file-video">
		<path d="M64 0C28.7 0 0 28.7 0 64V448c0 35.3 28.7 64 64 64H320c35.3 0 64-28.7 64-64V160H256c-17.7 0-32-14.3-32-32V0H64zM256 0V128H384L256 0zM64 288c0-17.7 14.3-32 32-32h96c17.7 0 32 14.3 32 32v96c0 17.7-14.3 32-32 32H96c-17.7 0-32-14.3-32-32V288zM300.9 397.9L256 368V304l44.9-29.9c2-1.3 4.4-2.1 6.8-2.1c6.8 0 12.3 5.5 12.3 12.3V387.7c0 6.8-5.5 12.3-12.3 12.3c-2.4 0-4.8-.7-6.8-2.1z"/>
	</symbol>
	<symbol xmlns="http://www.w3.org/2000/svg" viewBox="0 0 384 512" id="file-audio">
		<path d="M64 0C28.7 0 0 28.7 0 64V448c0 35.3 28.7 64 64 64H320c35.3 0 64-28.7 64-64V160H256c-17.7 0-32-14.3-32-32V0H64zM256 0V128H384L256 0zm2 226.3c37.1 22.4 62 63.1 62 109.7s-24.9 87.3-62 109.7c-7.6 4.6-17.4 2.1-22-5.4s-2.1-17.4 5.4-22C269.4 401.5 288 370.9 288 336s-18.6-65.5-46.5-82.3c-7.6-4.6-10-14.4-5.4-22s14.4-10 22-5.4zm-91.9 30.9c6 2.5 9.9 8.3 9.9 14.8V400c0 6.5-3.9 12.3-9.9 14.8s-12.9 1.1-17.4-3.5L113.4 376H80c-8.8 0-16-7.2-16-16V312c0-8.8 7.2-16 16-16h33.4l35.3-35.3c4.6-4.6 11.5-5.9 17.4-3.5zm51 34.9c6.6-5.9 16.7-5.3 22.6 1.3C249.8 304.6 256 319.6 256 336s-6.2 31.4-16.3 42.7c-5.9 6.6-16 7.1-22.6 1.3s-7.1-16-1.3-22.6c5.1-5.7 8.1-13.1 8.1-21.3s-3.1-15.7-8.1-21.3c-5.9-6.6-5.3-16.7 1.3-22.6z"/>
	</symbol>
	<symbol xmlns="http://www.w3.org/2000/svg" viewBox="0 0 384 512" id="file">
		<path d="M0 64C0 28.7 28.7 0 64 0H224V128c0 17.7 14.3 32 32 32H384V448c0 35.3-28.7 64-64 64H64c-35.3 0-64-28.7-64-64V64zm384 64H256V0L384 128z"/>
	</symbol>
	<symbol xmlns="http://www.w3.org/2000/svg" viewBox="0 0 320 512" id="angle-right">
		<path d="M278.6 233.4c12.5 12.5 12.5 32.8 0 45.3l-160 160c-12.5 12.5-32.8 12.5-45.3 0s-12.5-32.8 0-45.3L210.7 256 73.4 118.6c-12.5-12.5-12.5-32.8 0-45.3s32.8-12.5 45.3 0l160 160z"/>
	</symbol>
	<symbol xmlns="http://www.w3.org/2000/svg" viewBox="0 0 448 512" id="angle-up">
		<path d="M201.4 137.4c12.5-12.5 32.8-12.5 45.3 0l160 160c12.5 12.5 12.5 32.8 0 45.3s-32.8 12.5-45.3 0L224 205.3 86.6 342.6c-12.5 12.5-32.8 12.5-45.3 0s-12.5-32.8 0-45.3l160-160z"/>
	</symbol>
	<symbol xmlns="http://www.w3.org/2000/svg" viewBox="0 0 320 512" id="angle-left">
		<path d="M41.4 233.4c-12.5 12.5-12.5 32.8 0 45.3l160 160c12.5 12.5 32.8 12.5 45.3 0s12.5-32.8 0-45.3L109.3 256 246.6 118.6c12.5-12.5 12.5-32.8 0-45.3s-32.8-12.5-45.3 0l-160 160z"/>
	</symbol>
	<symbol xmlns="http://www.w3.org/2000/svg" viewBox="0 0 448 512" id="angle-down">
		<path d="M201.4 374.6c12.5 12.5 32.8 12.5 45.3 0l160-160c12.5-12.5 12.5-32.8 0-45.3s-32.8-12.5-45.3 0L224 306.7 86.6 169.4c-12.5-12.5-32.8-12.5-45.3 0s-12.5 32.8 0 45.3l160 160z"/>
	</symbol>
	<symbol xmlns="http://www.w3.org/2000/svg" viewBox="0 0 512 512" id="angles-right">
		<path d="M470.6 278.6c12.5-12.5 12.5-32.8 0-45.3l-160-160c-12.5-12.5-32.8-12.5-45.3 0s-12.5 32.8 0 45.3L402.7 256 265.4 393.4c-12.5 12.5-12.5 32.8 0 45.3s32.8 12.5 45.3 0l160-160zm-352 160l160-160c12.5-12.5 12.5-32.8 0-45.3l-160-160c-12.5-12.5-32.8-12.5-45.3 0s-12.5 32.8 0 45.3L210.7 256 73.4 393.4c-12.5 12.5-12.5 32.8 0 45.3s32.8 12.5 45.3 0z"/>
	</symbol>
	<symbol xmlns="http://www.w3.org/2000/svg" viewBox="0 0 512 512" id="angles-left">
		<path d="M41.4 233.4c-12.5 12.5-12.5 32.8 0 45.3l160 160c12.5 12.5 32.8 12.5 45.3 0s12.5-32.8 0-45.3L109.3 256 246.6 118.6c12.5-12.5 12.5-32.8 0-45.3s-32.8-12.5-45.3 0l-160 160zm352-160l-160 160c-12.5 12.5-12.5 32.8 0 45.3l160 160c12.5 12.5 32.8 12.5 45.3 0s12.5-32.8 0-45.3L301.3 256 438.6 118.6c12.5-12.5 12.5-32.8 0-45.3s-32.8-12.5-45.3 0z"/>
	</symbol>
	<symbol xmlns="http://www.w3.org/2000/svg" viewBox="0 0 448 512" id="angles-up">
		<path d="M246.6 41.4c-12.5-12.5-32.8-12.5-45.3 0l-160 160c-12.5 12.5-12.5 32.8 0 45.3s32.8 12.5 45.3 0L224 109.3 361.4 246.6c12.5 12.5 32.8 12.5 45.3 0s12.5-32.8 0-45.3l-160-160zm160 352l-160-160c-12.5-12.5-32.8-12.5-45.3 0l-160 160c-12.5 12.5-12.5 32.8 0 45.3s32.8 12.5 45.3 0L224 301.3 361.4 438.6c12.5 12.5 32.8 12.5 45.3 0s12.5-32.8 0-45.3z"/>
	</symbol>
	<symbol xmlns="http://www.w3.org/2000/svg" viewBox="0 0 448 512" id="angles-down">
		<path d="M246.6 470.6c-12.5 12.5-32.8 12.5-45.3 0l-160-160c-12.5-12.5-12.5-32.8 0-45.3s32.8-12.5 45.3 0L224 402.7 361.4 265.4c12.5-12.5 32.8-12.5 45.3 0s12.5 32.8 0 45.3l-160 160zm160-352l-160 160c-12.5 12.5-32.8 12.5-45.3 0l-160-160c-12.5-12.5-12.5-32.8 0-45.3s32.8-12.5 45.3 0L224 210.7 361.4 73.4c12.5-12.5 32.8-12.5 45.3 0s12.5 32.8 0 45.3z"/>
	</symbol>
	
	
	
</svg>