<svg width="0" height="0" class="hidden">
	<symbol xmlns="http://www.w3.org/2000/svg" viewBox="0 0 448 512" id="bars-solid">
		<path d="M0 96C0 78.3 14.3 64 32 64H416c17.7 0 32 14.3 32 32s-14.3 32-32 32H32C14.3 128 0 113.7 0 96zM0 256c0-17.7 14.3-32 32-32H416c17.7 0 32 14.3 32 32s-14.3 32-32 32H32c-17.7 0-32-14.3-32-32zM448 416c0 17.7-14.3 32-32 32H32c-17.7 0-32-14.3-32-32s14.3-32 32-32H416c17.7 0 32 14.3 32 32z"></path>
	</symbol>
	<symbol xmlns="http://www.w3.org/2000/svg" viewBox="0 0 512 512" id="magnifying-glass-solid">
		<path d="M416 208c0 45.9-14.9 88.3-40 122.7L502.6 457.4c12.5 12.5 12.5 32.8 0 45.3s-32.8 12.5-45.3 0L330.7 376c-34.4 25.2-76.8 40-122.7 40C93.1 416 0 322.9 0 208S93.1 0 208 0S416 93.1 416 208zM208 352c79.5 0 144-64.5 144-144s-64.5-144-144-144S64 128.5 64 208s64.5 144 144 144z"></path>
	</symbol>
	<symbol xmlns="http://www.w3.org/2000/svg" viewBox="0 0 512 512" id="ban-solid">
		<path d="M367.2 412.5L99.5 144.8C77.1 176.1 64 214.5 64 256c0 106 86 192 192 192c41.5 0 79.9-13.1 111.2-35.5zm45.3-45.3C434.9 335.9 448 297.5 448 256c0-106-86-192-192-192c-41.5 0-79.9 13.1-111.2 35.5L412.5 367.2zM512 256c0 141.4-114.6 256-256 256S0 397.4 0 256S114.6 0 256 0S512 114.6 512 256z"></path>
	</symbol>
	<symbol xmlns="http://www.w3.org/2000/svg" viewBox="0 0 512 512" id="power-off-solid">
		<path d="M288 32c0-17.7-14.3-32-32-32s-32 14.3-32 32V256c0 17.7 14.3 32 32 32s32-14.3 32-32V32zM143.5 120.6c13.6-11.3 15.4-31.5 4.1-45.1s-31.5-15.4-45.1-4.1C49.7 115.4 16 181.8 16 256c0 132.5 107.5 240 240 240s240-107.5 240-240c0-74.2-33.8-140.6-86.6-184.6c-13.6-11.3-33.8-9.4-45.1 4.1s-9.4 33.8 4.1 45.1c38.9 32.3 63.5 81 63.5 135.4c0 97.2-78.8 176-176 176s-176-78.8-176-176c0-54.4 24.7-103.1 63.5-135.4z"></path>
	</symbol>
	<symbol xmlns="http://www.w3.org/2000/svg" viewBox="0 0 448 512" id="trash-solid">
		<path d="M135.2 17.7L128 32H32C14.3 32 0 46.3 0 64S14.3 96 32 96H416c17.7 0 32-14.3 32-32s-14.3-32-32-32H320l-7.2-14.3C307.4 6.8 296.3 0 284.2 0H163.8c-12.1 0-23.2 6.8-28.6 17.7zM416 128H32L53.2 467c1.6 25.3 22.6 45 47.9 45H346.9c25.3 0 46.3-19.7 47.9-45L416 128z"></path>
	</symbol>
	<symbol xmlns="http://www.w3.org/2000/svg" viewBox="0 0 512 512" id="pencil-solid">
		<path d="M421.7 220.3l-11.3 11.3-22.6 22.6-205 205c-6.6 6.6-14.8 11.5-23.8 14.1L30.8 511c-8.4 2.5-17.5 .2-23.7-6.1S-1.5 489.7 1 481.2L38.7 353.1c2.6-9 7.5-17.2 14.1-23.8l205-205 22.6-22.6 11.3-11.3 33.9 33.9 62.1 62.1 33.9 33.9zM96 353.9l-9.3 9.3c-.9 .9-1.6 2.1-2 3.4l-25.3 86 86-25.3c1.3-.4 2.5-1.1 3.4-2l9.3-9.3H112c-8.8 0-16-7.2-16-16V353.9zM453.3 19.3l39.4 39.4c25 25 25 65.5 0 90.5l-14.5 14.5-22.6 22.6-11.3 11.3-33.9-33.9-62.1-62.1L314.3 67.7l11.3-11.3 22.6-22.6 14.5-14.5c25-25 65.5-25 90.5 0z"></path>
	</symbol>
	<symbol xmlns="http://www.w3.org/2000/svg" viewBox="0 0 448 512" id="plus-solid">
		<path d="M256 80c0-17.7-14.3-32-32-32s-32 14.3-32 32V224H48c-17.7 0-32 14.3-32 32s14.3 32 32 32H192V432c0 17.7 14.3 32 32 32s32-14.3 32-32V288H400c17.7 0 32-14.3 32-32s-14.3-32-32-32H256V80z"></path>
	</symbol>
	<symbol xmlns="http://www.w3.org/2000/svg" viewBox="0 0 448 512" id="floppy-disk-solid">
		<path d="M64 32C28.7 32 0 60.7 0 96V416c0 35.3 28.7 64 64 64H384c35.3 0 64-28.7 64-64V173.3c0-17-6.7-33.3-18.7-45.3L352 50.7C340 38.7 323.7 32 306.7 32H64zm0 96c0-17.7 14.3-32 32-32H288c17.7 0 32 14.3 32 32v64c0 17.7-14.3 32-32 32H96c-17.7 0-32-14.3-32-32V128zM224 416c-35.3 0-64-28.7-64-64s28.7-64 64-64s64 28.7 64 64s-28.7 64-64 64z"></path>
	</symbol>
	<symbol xmlns="http://www.w3.org/2000/svg" viewBox="0 0 320 512" id="xmark-solid">
		<path d="M310.6 150.6c12.5-12.5 12.5-32.8 0-45.3s-32.8-12.5-45.3 0L160 210.7 54.6 105.4c-12.5-12.5-32.8-12.5-45.3 0s-12.5 32.8 0 45.3L114.7 256 9.4 361.4c-12.5 12.5-12.5 32.8 0 45.3s32.8 12.5 45.3 0L160 301.3 265.4 406.6c12.5 12.5 32.8 12.5 45.3 0s12.5-32.8 0-45.3L205.3 256 310.6 150.6z"></path>
	</symbol>
	<symbol xmlns="http://www.w3.org/2000/svg" viewBox="0 0 384 512" id="file-pdf">
		<path d="M64 0C28.7 0 0 28.7 0 64V448c0 35.3 28.7 64 64 64H320c35.3 0 64-28.7 64-64V160H256c-17.7 0-32-14.3-32-32V0H64zM256 0V128H384L256 0zM64 224H88c30.9 0 56 25.1 56 56s-25.1 56-56 56H80v32c0 8.8-7.2 16-16 16s-16-7.2-16-16V320 240c0-8.8 7.2-16 16-16zm24 80c13.3 0 24-10.7 24-24s-10.7-24-24-24H80v48h8zm72-64c0-8.8 7.2-16 16-16h24c26.5 0 48 21.5 48 48v64c0 26.5-21.5 48-48 48H176c-8.8 0-16-7.2-16-16V240zm32 112h8c8.8 0 16-7.2 16-16V272c0-8.8-7.2-16-16-16h-8v96zm96-128h48c8.8 0 16 7.2 16 16s-7.2 16-16 16H304v32h32c8.8 0 16 7.2 16 16s-7.2 16-16 16H304v48c0 8.8-7.2 16-16 16s-16-7.2-16-16V304 240c0-8.8 7.2-16 16-16z"/>
	</symbol>
	<symbol xmlns="http://www.w3.org/2000/svg" viewBox="0 0 384 512" id="file-excel">
		<path d="M64 0C28.7 0 0 28.7 0 64V448c0 35.3 28.7 64 64 64H320c35.3 0 64-28.7 64-64V160H256c-17.7 0-32-14.3-32-32V0H64zM256 0V128H384L256 0zM155.7 250.2L192 302.1l36.3-51.9c7.6-10.9 22.6-13.5 33.4-5.9s13.5 22.6 5.9 33.4L221.3 344l46.4 66.2c7.6 10.9 5 25.8-5.9 33.4s-25.8 5-33.4-5.9L192 385.8l-36.3 51.9c-7.6 10.9-22.6 13.5-33.4 5.9s-13.5-22.6-5.9-33.4L162.7 344l-46.4-66.2c-7.6-10.9-5-25.8 5.9-33.4s25.8-5 33.4 5.9z"/>
	</symbol>
	<symbol xmlns="http://www.w3.org/2000/svg" viewBox="0 0 384 512" id="file-word">
		<path d="M64 0C28.7 0 0 28.7 0 64V448c0 35.3 28.7 64 64 64H320c35.3 0 64-28.7 64-64V160H256c-17.7 0-32-14.3-32-32V0H64zM256 0V128H384L256 0zM111 257.1l26.8 89.2 31.6-90.3c3.4-9.6 12.5-16.1 22.7-16.1s19.3 6.4 22.7 16.1l31.6 90.3L273 257.1c3.8-12.7 17.2-19.9 29.9-16.1s19.9 17.2 16.1 29.9l-48 160c-3 10-12.1 16.9-22.4 17.1s-19.8-6.2-23.2-16.1L192 336.6l-33.3 95.3c-3.4 9.8-12.8 16.3-23.2 16.1s-19.5-7.1-22.4-17.1l-48-160c-3.8-12.7 3.4-26.1 16.1-29.9s26.1 3.4 29.9 16.1z"/>
	</symbol>
	<symbol xmlns="http://www.w3.org/2000/svg" viewBox="0 0 384 512" id="file-csv">
		<path d="M64 0C28.7 0 0 28.7 0 64V448c0 35.3 28.7 64 64 64H320c35.3 0 64-28.7 64-64V160H256c-17.7 0-32-14.3-32-32V0H64zM256 0V128H384L256 0zM80 224H96c22.1 0 40 17.9 40 40v8c0 8.8-7.2 16-16 16s-16-7.2-16-16v-8c0-4.4-3.6-8-8-8H80c-4.4 0-8 3.6-8 8v80c0 4.4 3.6 8 8 8H96c4.4 0 8-3.6 8-8v-8c0-8.8 7.2-16 16-16s16 7.2 16 16v8c0 22.1-17.9 40-40 40H80c-22.1 0-40-17.9-40-40V264c0-22.1 17.9-40 40-40zm72 46.4c0-25.6 20.8-46.4 46.4-46.4H216c8.8 0 16 7.2 16 16s-7.2 16-16 16H198.4c-7.9 0-14.4 6.4-14.4 14.4c0 5.2 2.8 9.9 7.2 12.5l25.4 14.5c14.4 8.3 23.4 23.6 23.4 40.3c0 25.6-20.8 46.4-46.4 46.4H168c-8.8 0-16-7.2-16-16s7.2-16 16-16h25.6c7.9 0 14.4-6.4 14.4-14.4c0-5.2-2.8-9.9-7.2-12.5l-25.4-14.5C160.9 302.4 152 287 152 270.4zM280 240v31.6c0 23 5.5 45.6 16 66c10.5-20.3 16-42.9 16-66V240c0-8.8 7.2-16 16-16s16 7.2 16 16v31.6c0 34.7-10.3 68.7-29.6 97.6l-5.1 7.7c-3 4.5-8 7.1-13.3 7.1s-10.3-2.7-13.3-7.1l-5.1-7.7c-19.3-28.9-29.6-62.9-29.6-97.6V240c0-8.8 7.2-16 16-16s16 7.2 16 16z"/>
	</symbol>
	<symbol xmlns="http://www.w3.org/2000/svg" viewBox="0 0 384 512" id="file-powerpoint">
		<path d="M64 0C28.7 0 0 28.7 0 64V448c0 35.3 28.7 64 64 64H320c35.3 0 64-28.7 64-64V160H256c-17.7 0-32-14.3-32-32V0H64zM256 0V128H384L256 0zM136 240h68c42 0 76 34 76 76s-34 76-76 76H160v32c0 13.3-10.7 24-24 24s-24-10.7-24-24V368 264c0-13.3 10.7-24 24-24zm68 104c15.5 0 28-12.5 28-28s-12.5-28-28-28H160v56h44z"/>
	</symbol>
	<symbol xmlns="http://www.w3.org/2000/svg" viewBox="0 0 384 512" id="file-image">
		<path d="M64 0C28.7 0 0 28.7 0 64V448c0 35.3 28.7 64 64 64H320c35.3 0 64-28.7 64-64V160H256c-17.7 0-32-14.3-32-32V0H64zM256 0V128H384L256 0zM128 256c0 17.7-14.3 32-32 32s-32-14.3-32-32s14.3-32 32-32s32 14.3 32 32zm88 32c5.3 0 10.2 2.6 13.2 6.9l88 128c3.4 4.9 3.7 11.3 1 16.5s-8.2 8.6-14.2 8.6H216 176 128 80c-5.8 0-11.1-3.1-13.9-8.1s-2.8-11.2 .2-16.1l48-80c2.9-4.8 8.1-7.8 13.7-7.8s10.8 2.9 13.7 7.8l12.8 21.4 48.3-70.2c3-4.3 7.9-6.9 13.2-6.9z"/>
	</symbol>
	<symbol xmlns="http://www.w3.org/2000/svg" viewBox="0 0 384 512" id="file-video">
		<path d="M64 0C28.7 0 0 28.7 0 64V448c0 35.3 28.7 64 64 64H320c35.3 0 64-28.7 64-64V160H256c-17.7 0-32-14.3-32-32V0H64zM256 0V128H384L256 0zM64 288c0-17.7 14.3-32 32-32h96c17.7 0 32 14.3 32 32v96c0 17.7-14.3 32-32 32H96c-17.7 0-32-14.3-32-32V288zM300.9 397.9L256 368V304l44.9-29.9c2-1.3 4.4-2.1 6.8-2.1c6.8 0 12.3 5.5 12.3 12.3V387.7c0 6.8-5.5 12.3-12.3 12.3c-2.4 0-4.8-.7-6.8-2.1z"/>
	</symbol>
	<symbol xmlns="http://www.w3.org/2000/svg" viewBox="0 0 384 512" id="file-audio">
		<path d="M64 0C28.7 0 0 28.7 0 64V448c0 35.3 28.7 64 64 64H320c35.3 0 64-28.7 64-64V160H256c-17.7 0-32-14.3-32-32V0H64zM256 0V128H384L256 0zm2 226.3c37.1 22.4 62 63.1 62 109.7s-24.9 87.3-62 109.7c-7.6 4.6-17.4 2.1-22-5.4s-2.1-17.4 5.4-22C269.4 401.5 288 370.9 288 336s-18.6-65.5-46.5-82.3c-7.6-4.6-10-14.4-5.4-22s14.4-10 22-5.4zm-91.9 30.9c6 2.5 9.9 8.3 9.9 14.8V400c0 6.5-3.9 12.3-9.9 14.8s-12.9 1.1-17.4-3.5L113.4 376H80c-8.8 0-16-7.2-16-16V312c0-8.8 7.2-16 16-16h33.4l35.3-35.3c4.6-4.6 11.5-5.9 17.4-3.5zm51 34.9c6.6-5.9 16.7-5.3 22.6 1.3C249.8 304.6 256 319.6 256 336s-6.2 31.4-16.3 42.7c-5.9 6.6-16 7.1-22.6 1.3s-7.1-16-1.3-22.6c5.1-5.7 8.1-13.1 8.1-21.3s-3.1-15.7-8.1-21.3c-5.9-6.6-5.3-16.7 1.3-22.6z"/>
	</symbol>
	<symbol xmlns="http://www.w3.org/2000/svg" viewBox="0 0 384 512" id="file">
		<path d="M0 64C0 28.7 28.7 0 64 0H224V128c0 17.7 14.3 32 32 32H384V448c0 35.3-28.7 64-64 64H64c-35.3 0-64-28.7-64-64V64zm384 64H256V0L384 128z"/>
	</symbol>
	<symbol xmlns="http://www.w3.org/2000/svg" viewBox="0 0 320 512" id="angle-right">
		<path d="M278.6 233.4c12.5 12.5 12.5 32.8 0 45.3l-160 160c-12.5 12.5-32.8 12.5-45.3 0s-12.5-32.8 0-45.3L210.7 256 73.4 118.6c-12.5-12.5-12.5-32.8 0-45.3s32.8-12.5 45.3 0l160 160z"/>
	</symbol>
	<symbol xmlns="http://www.w3.org/2000/svg" viewBox="0 0 448 512" id="angle-up">
		<path d="M201.4 137.4c12.5-12.5 32.8-12.5 45.3 0l160 160c12.5 12.5 12.5 32.8 0 45.3s-32.8 12.5-45.3 0L224 205.3 86.6 342.6c-12.5 12.5-32.8 12.5-45.3 0s-12.5-32.8 0-45.3l160-160z"/>
	</symbol>
	<symbol xmlns="http://www.w3.org/2000/svg" viewBox="0 0 320 512" id="angle-left">
		<path d="M41.4 233.4c-12.5 12.5-12.5 32.8 0 45.3l160 160c12.5 12.5 32.8 12.5 45.3 0s12.5-32.8 0-45.3L109.3 256 246.6 118.6c12.5-12.5 12.5-32.8 0-45.3s-32.8-12.5-45.3 0l-160 160z"/>
	</symbol>
	<symbol xmlns="http://www.w3.org/2000/svg" viewBox="0 0 448 512" id="angle-down">
		<path d="M201.4 374.6c12.5 12.5 32.8 12.5 45.3 0l160-160c12.5-12.5 12.5-32.8 0-45.3s-32.8-12.5-45.3 0L224 306.7 86.6 169.4c-12.5-12.5-32.8-12.5-45.3 0s-12.5 32.8 0 45.3l160 160z"/>
	</symbol>
	<symbol xmlns="http://www.w3.org/2000/svg" viewBox="0 0 512 512" id="angles-right">
		<path d="M470.6 278.6c12.5-12.5 12.5-32.8 0-45.3l-160-160c-12.5-12.5-32.8-12.5-45.3 0s-12.5 32.8 0 45.3L402.7 256 265.4 393.4c-12.5 12.5-12.5 32.8 0 45.3s32.8 12.5 45.3 0l160-160zm-352 160l160-160c12.5-12.5 12.5-32.8 0-45.3l-160-160c-12.5-12.5-32.8-12.5-45.3 0s-12.5 32.8 0 45.3L210.7 256 73.4 393.4c-12.5 12.5-12.5 32.8 0 45.3s32.8 12.5 45.3 0z"/>
	</symbol>
	<symbol xmlns="http://www.w3.org/2000/svg" viewBox="0 0 512 512" id="angles-left">
		<path d="M41.4 233.4c-12.5 12.5-12.5 32.8 0 45.3l160 160c12.5 12.5 32.8 12.5 45.3 0s12.5-32.8 0-45.3L109.3 256 246.6 118.6c12.5-12.5 12.5-32.8 0-45.3s-32.8-12.5-45.3 0l-160 160zm352-160l-160 160c-12.5 12.5-12.5 32.8 0 45.3l160 160c12.5 12.5 32.8 12.5 45.3 0s12.5-32.8 0-45.3L301.3 256 438.6 118.6c12.5-12.5 12.5-32.8 0-45.3s-32.8-12.5-45.3 0z"/>
	</symbol>
	<symbol xmlns="http://www.w3.org/2000/svg" viewBox="0 0 448 512" id="angles-up">
		<path d="M246.6 41.4c-12.5-12.5-32.8-12.5-45.3 0l-160 160c-12.5 12.5-12.5 32.8 0 45.3s32.8 12.5 45.3 0L224 109.3 361.4 246.6c12.5 12.5 32.8 12.5 45.3 0s12.5-32.8 0-45.3l-160-160zm160 352l-160-160c-12.5-12.5-32.8-12.5-45.3 0l-160 160c-12.5 12.5-12.5 32.8 0 45.3s32.8 12.5 45.3 0L224 301.3 361.4 438.6c12.5 12.5 32.8 12.5 45.3 0s12.5-32.8 0-45.3z"/>
	</symbol>
	<symbol xmlns="http://www.w3.org/2000/svg" viewBox="0 0 448 512" id="angles-down">
		<path d="M246.6 470.6c-12.5 12.5-32.8 12.5-45.3 0l-160-160c-12.5-12.5-12.5-32.8 0-45.3s32.8-12.5 45.3 0L224 402.7 361.4 265.4c12.5-12.5 32.8-12.5 45.3 0s12.5 32.8 0 45.3l-160 160zm160-352l-160 160c-12.5 12.5-32.8 12.5-45.3 0l-160-160c-12.5-12.5-12.5-32.8 0-45.3s32.8-12.5 45.3 0L224 210.7 361.4 73.4c12.5-12.5 32.8-12.5 45.3 0s12.5 32.8 0 45.3z"/>
	</symbol>
	<symbol xmlns="http://www.w3.org/2000/svg" height="1em" viewBox="0 0 576 512" id="home" u="f015">
		<!--! Font Awesome Free 6.4.2 by @fontawesome - https://fontawesome.com License - https://fontawesome.com/license (Commercial License) Copyright 2023 Fonticons, Inc. -->
		<path d="M575.8 255.5c0 18-15 32.1-32 32.1h-32l.7 160.2c0 2.7-.2 5.4-.5 8.1V472c0 22.1-17.9 40-40 40H456c-1.1 0-2.2 0-3.3-.1c-1.4 .1-2.8 .1-4.2 .1H416 392c-22.1 0-40-17.9-40-40V448 384c0-17.7-14.3-32-32-32H256c-17.7 0-32 14.3-32 32v64 24c0 22.1-17.9 40-40 40H160 128.1c-1.5 0-3-.1-4.5-.2c-1.2 .1-2.4 .2-3.6 .2H104c-22.1 0-40-17.9-40-40V360c0-.9 0-1.9 .1-2.8V287.6H32c-18 0-32-14-32-32.1c0-9 3-17 10-24L266.4 8c7-7 15-8 22-8s15 2 21 7L564.8 231.5c8 7 12 15 11 24z"/>
	</symbol>
	<symbol xmlns="http://www.w3.org/2000/svg" height="1em" viewBox="0 0 640 512" id="school" u="f549">
		<!--! Font Awesome Free 6.4.2 by @fontawesome - https://fontawesome.com License - https://fontawesome.com/license (Commercial License) Copyright 2023 Fonticons, Inc. -->
		<path d="M337.8 5.4C327-1.8 313-1.8 302.2 5.4L166.3 96H48C21.5 96 0 117.5 0 144V464c0 26.5 21.5 48 48 48H592c26.5 0 48-21.5 48-48V144c0-26.5-21.5-48-48-48H473.7L337.8 5.4zM256 416c0-35.3 28.7-64 64-64s64 28.7 64 64v96H256V416zM96 192h32c8.8 0 16 7.2 16 16v64c0 8.8-7.2 16-16 16H96c-8.8 0-16-7.2-16-16V208c0-8.8 7.2-16 16-16zm400 16c0-8.8 7.2-16 16-16h32c8.8 0 16 7.2 16 16v64c0 8.8-7.2 16-16 16H512c-8.8 0-16-7.2-16-16V208zM96 320h32c8.8 0 16 7.2 16 16v64c0 8.8-7.2 16-16 16H96c-8.8 0-16-7.2-16-16V336c0-8.8 7.2-16 16-16zm400 16c0-8.8 7.2-16 16-16h32c8.8 0 16 7.2 16 16v64c0 8.8-7.2 16-16 16H512c-8.8 0-16-7.2-16-16V336zM232 176a88 88 0 1 1 176 0 88 88 0 1 1 -176 0zm88-48c-8.8 0-16 7.2-16 16v32c0 8.8 7.2 16 16 16h32c8.8 0 16-7.2 16-16s-7.2-16-16-16H336V144c0-8.8-7.2-16-16-16z"/>
	</symbol>
	<symbol xmlns="http://www.w3.org/2000/svg" height="1em" viewBox="0 0 512 512" id="building-columns" u="f19c">
		<!--! Font Awesome Free 6.4.2 by @fontawesome - https://fontawesome.com License - https://fontawesome.com/license (Commercial License) Copyright 2023 Fonticons, Inc. -->
		<path d="M243.4 2.6l-224 96c-14 6-21.8 21-18.7 35.8S16.8 160 32 160v8c0 13.3 10.7 24 24 24H456c13.3 0 24-10.7 24-24v-8c15.2 0 28.3-10.7 31.3-25.6s-4.8-29.9-18.7-35.8l-224-96c-8-3.4-17.2-3.4-25.2 0zM128 224H64V420.3c-.6 .3-1.2 .7-1.8 1.1l-48 32c-11.7 7.8-17 22.4-12.9 35.9S17.9 512 32 512H480c14.1 0 26.5-9.2 30.6-22.7s-1.1-28.1-12.9-35.9l-48-32c-.6-.4-1.2-.7-1.8-1.1V224H384V416H344V224H280V416H232V224H168V416H128V224zM256 64a32 32 0 1 1 0 64 32 32 0 1 1 0-64z"/>
	</symbol>
	<symbol xmlns="http://www.w3.org/2000/svg" height="1em" viewBox="0 0 384 512" id="award" u="f559">
		<!--! Font Awesome Free 6.4.2 by @fontawesome - https://fontawesome.com License - https://fontawesome.com/license (Commercial License) Copyright 2023 Fonticons, Inc. -->
		<path d="M173.8 5.5c11-7.3 25.4-7.3 36.4 0L228 17.2c6 3.9 13 5.8 20.1 5.4l21.3-1.3c13.2-.8 25.6 6.4 31.5 18.2l9.6 19.1c3.2 6.4 8.4 11.5 14.7 14.7L344.5 83c11.8 5.9 19 18.3 18.2 31.5l-1.3 21.3c-.4 7.1 1.5 14.2 5.4 20.1l11.8 17.8c7.3 11 7.3 25.4 0 36.4L366.8 228c-3.9 6-5.8 13-5.4 20.1l1.3 21.3c.8 13.2-6.4 25.6-18.2 31.5l-19.1 9.6c-6.4 3.2-11.5 8.4-14.7 14.7L301 344.5c-5.9 11.8-18.3 19-31.5 18.2l-21.3-1.3c-7.1-.4-14.2 1.5-20.1 5.4l-17.8 11.8c-11 7.3-25.4 7.3-36.4 0L156 366.8c-6-3.9-13-5.8-20.1-5.4l-21.3 1.3c-13.2 .8-25.6-6.4-31.5-18.2l-9.6-19.1c-3.2-6.4-8.4-11.5-14.7-14.7L39.5 301c-11.8-5.9-19-18.3-18.2-31.5l1.3-21.3c.4-7.1-1.5-14.2-5.4-20.1L5.5 210.2c-7.3-11-7.3-25.4 0-36.4L17.2 156c3.9-6 5.8-13 5.4-20.1l-1.3-21.3c-.8-13.2 6.4-25.6 18.2-31.5l19.1-9.6C65 70.2 70.2 65 73.4 58.6L83 39.5c5.9-11.8 18.3-19 31.5-18.2l21.3 1.3c7.1 .4 14.2-1.5 20.1-5.4L173.8 5.5zM272 192a80 80 0 1 0 -160 0 80 80 0 1 0 160 0zM1.3 441.8L44.4 339.3c.2 .1 .3 .2 .4 .4l9.6 19.1c11.7 23.2 36 37.3 62 35.8l21.3-1.3c.2 0 .5 0 .7 .2l17.8 11.8c5.1 3.3 10.5 5.9 16.1 7.7l-37.6 89.3c-2.3 5.5-7.4 9.2-13.3 9.7s-11.6-2.2-14.8-7.2L74.4 455.5l-56.1 8.3c-5.7 .8-11.4-1.5-15-6s-4.3-10.7-2.1-16zm248 60.4L211.7 413c5.6-1.8 11-4.3 16.1-7.7l17.8-11.8c.2-.1 .4-.2 .7-.2l21.3 1.3c26 1.5 50.3-12.6 62-35.8l9.6-19.1c.1-.2 .2-.3 .4-.4l43.2 102.5c2.2 5.3 1.4 11.4-2.1 16s-9.3 6.9-15 6l-56.1-8.3-32.2 49.2c-3.2 5-8.9 7.7-14.8 7.2s-11-4.3-13.3-9.7z"/>
	</symbol>
	<symbol xmlns="http://www.w3.org/2000/svg" height="1em" viewBox="0 0 448 512" id="user-graduate" u="f501">
		<!--! Font Awesome Free 6.4.2 by @fontawesome - https://fontawesome.com License - https://fontawesome.com/license (Commercial License) Copyright 2023 Fonticons, Inc. -->
		<path d="M219.3 .5c3.1-.6 6.3-.6 9.4 0l200 40C439.9 42.7 448 52.6 448 64s-8.1 21.3-19.3 23.5L352 102.9V160c0 70.7-57.3 128-128 128s-128-57.3-128-128V102.9L48 93.3v65.1l15.7 78.4c.9 4.7-.3 9.6-3.3 13.3s-7.6 5.9-12.4 5.9H16c-4.8 0-9.3-2.1-12.4-5.9s-4.3-8.6-3.3-13.3L16 158.4V86.6C6.5 83.3 0 74.3 0 64C0 52.6 8.1 42.7 19.3 40.5l200-40zM111.9 327.7c10.5-3.4 21.8 .4 29.4 8.5l71 75.5c6.3 6.7 17 6.7 23.3 0l71-75.5c7.6-8.1 18.9-11.9 29.4-8.5C401 348.6 448 409.4 448 481.3c0 17-13.8 30.7-30.7 30.7H30.7C13.8 512 0 498.2 0 481.3c0-71.9 47-132.7 111.9-153.6z"/>
	</symbol>
	<symbol xmlns="http://www.w3.org/2000/svg" height="1em" viewBox="0 0 640 512" id="people-roof" u="e537">
		<!--! Font Awesome Free 6.4.2 by @fontawesome - https://fontawesome.com License - https://fontawesome.com/license (Commercial License) Copyright 2023 Fonticons, Inc. -->
		<path d="M335.5 4l288 160c15.4 8.6 21 28.1 12.4 43.5s-28.1 21-43.5 12.4L320 68.6 47.5 220c-15.4 8.6-34.9 3-43.5-12.4s-3-34.9 12.4-43.5L304.5 4c9.7-5.4 21.4-5.4 31.1 0zM320 160a40 40 0 1 1 0 80 40 40 0 1 1 0-80zM144 256a40 40 0 1 1 0 80 40 40 0 1 1 0-80zm312 40a40 40 0 1 1 80 0 40 40 0 1 1 -80 0zM226.9 491.4L200 441.5V480c0 17.7-14.3 32-32 32H120c-17.7 0-32-14.3-32-32V441.5L61.1 491.4c-6.3 11.7-20.8 16-32.5 9.8s-16-20.8-9.8-32.5l37.9-70.3c15.3-28.5 45.1-46.3 77.5-46.3h19.5c16.3 0 31.9 4.5 45.4 12.6l33.6-62.3c15.3-28.5 45.1-46.3 77.5-46.3h19.5c32.4 0 62.1 17.8 77.5 46.3l33.6 62.3c13.5-8.1 29.1-12.6 45.4-12.6h19.5c32.4 0 62.1 17.8 77.5 46.3l37.9 70.3c6.3 11.7 1.9 26.2-9.8 32.5s-26.2 1.9-32.5-9.8L552 441.5V480c0 17.7-14.3 32-32 32H472c-17.7 0-32-14.3-32-32V441.5l-26.9 49.9c-6.3 11.7-20.8 16-32.5 9.8s-16-20.8-9.8-32.5l36.3-67.5c-1.7-1.7-3.2-3.6-4.3-5.8L376 345.5V400c0 17.7-14.3 32-32 32H296c-17.7 0-32-14.3-32-32V345.5l-26.9 49.9c-1.2 2.2-2.6 4.1-4.3 5.8l36.3 67.5c6.3 11.7 1.9 26.2-9.8 32.5s-26.2 1.9-32.5-9.8z"/>
	</symbol>
	<symbol xmlns="http://www.w3.org/2000/svg" height="1em" viewBox="0 0 640 512" id="people-line" u="e534">
		<!--! Font Awesome Free 6.4.2 by @fontawesome - https://fontawesome.com License - https://fontawesome.com/license (Commercial License) Copyright 2023 Fonticons, Inc. -->
		<path d="M360 72a40 40 0 1 0 -80 0 40 40 0 1 0 80 0zM144 208a40 40 0 1 0 0-80 40 40 0 1 0 0 80zM32 416c-17.7 0-32 14.3-32 32s14.3 32 32 32H608c17.7 0 32-14.3 32-32s-14.3-32-32-32H32zM496 208a40 40 0 1 0 0-80 40 40 0 1 0 0 80zM200 313.5l26.9 49.9c6.3 11.7 20.8 16 32.5 9.8s16-20.8 9.8-32.5l-36.3-67.5c1.7-1.7 3.2-3.6 4.3-5.8L264 217.5V272c0 17.7 14.3 32 32 32h48c17.7 0 32-14.3 32-32V217.5l26.9 49.9c1.2 2.2 2.6 4.1 4.3 5.8l-36.3 67.5c-6.3 11.7-1.9 26.2 9.8 32.5s26.2 1.9 32.5-9.8L440 313.5V352c0 17.7 14.3 32 32 32h48c17.7 0 32-14.3 32-32V313.5l26.9 49.9c6.3 11.7 20.8 16 32.5 9.8s16-20.8 9.8-32.5l-37.9-70.3c-15.3-28.5-45.1-46.3-77.5-46.3H486.2c-16.3 0-31.9 4.5-45.4 12.6l-33.6-62.3c-15.3-28.5-45.1-46.3-77.5-46.3H310.2c-32.4 0-62.1 17.8-77.5 46.3l-33.6 62.3c-13.5-8.1-29.1-12.6-45.4-12.6H134.2c-32.4 0-62.1 17.8-77.5 46.3L18.9 340.6c-6.3 11.7-1.9 26.2 9.8 32.5s26.2 1.9 32.5-9.8L88 313.5V352c0 17.7 14.3 32 32 32h48c17.7 0 32-14.3 32-32V313.5z"/>
	</symbol>
	<symbol xmlns="http://www.w3.org/2000/svg" height="1em" viewBox="0 0 640 512" id="chalkboard-user" u="f51c">
		<!--! Font Awesome Free 6.4.2 by @fontawesome - https://fontawesome.com License - https://fontawesome.com/license (Commercial License) Copyright 2023 Fonticons, Inc. -->
		<path d="M160 64c0-35.3 28.7-64 64-64H576c35.3 0 64 28.7 64 64V352c0 35.3-28.7 64-64 64H336.8c-11.8-25.5-29.9-47.5-52.4-64H384V320c0-17.7 14.3-32 32-32h64c17.7 0 32 14.3 32 32v32h64V64L224 64v49.1C205.2 102.2 183.3 96 160 96V64zm0 64a96 96 0 1 1 0 192 96 96 0 1 1 0-192zM133.3 352h53.3C260.3 352 320 411.7 320 485.3c0 14.7-11.9 26.7-26.7 26.7H26.7C11.9 512 0 500.1 0 485.3C0 411.7 59.7 352 133.3 352z"/>
	</symbol>
	<symbol xmlns="http://www.w3.org/2000/svg" height="1em" viewBox="0 0 576 512" id="chalkboard" u="f51b">
		<!--! Font Awesome Free 6.4.2 by @fontawesome - https://fontawesome.com License - https://fontawesome.com/license (Commercial License) Copyright 2023 Fonticons, Inc. -->
		<path d="M96 32C60.7 32 32 60.7 32 96V384H96V96l384 0V384h64V96c0-35.3-28.7-64-64-64H96zM224 384v32H32c-17.7 0-32 14.3-32 32s14.3 32 32 32H544c17.7 0 32-14.3 32-32s-14.3-32-32-32H416V384c0-17.7-14.3-32-32-32H256c-17.7 0-32 14.3-32 32z"/>
	</symbol>
	<symbol xmlns="http://www.w3.org/2000/svg" height="1em" viewBox="0 0 576 512" id="book-open" u="f518">
		<!--! Font Awesome Free 6.4.2 by @fontawesome - https://fontawesome.com License - https://fontawesome.com/license (Commercial License) Copyright 2023 Fonticons, Inc. -->
		<path d="M249.6 471.5c10.8 3.8 22.4-4.1 22.4-15.5V78.6c0-4.2-1.6-8.4-5-11C247.4 52 202.4 32 144 32C93.5 32 46.3 45.3 18.1 56.1C6.8 60.5 0 71.7 0 83.8V454.1c0 11.9 12.8 20.2 24.1 16.5C55.6 460.1 105.5 448 144 448c33.9 0 79 14 105.6 23.5zm76.8 0C353 462 398.1 448 432 448c38.5 0 88.4 12.1 119.9 22.6c11.3 3.8 24.1-4.6 24.1-16.5V83.8c0-12.1-6.8-23.3-18.1-27.6C529.7 45.3 482.5 32 432 32c-58.4 0-103.4 20-123 35.6c-3.3 2.6-5 6.8-5 11V456c0 11.4 11.7 19.3 22.4 15.5z"/>
	</symbol>
	<symbol xmlns="http://www.w3.org/2000/svg" height="1em" viewBox="0 0 512 512" id="folder-minus" u="f65d">
		<!--! Font Awesome Free 6.4.2 by @fontawesome - https://fontawesome.com License - https://fontawesome.com/license (Commercial License) Copyright 2023 Fonticons, Inc. -->
		<path d="M448 480H64c-35.3 0-64-28.7-64-64V96C0 60.7 28.7 32 64 32H192c20.1 0 39.1 9.5 51.2 25.6l19.2 25.6c6 8.1 15.5 12.8 25.6 12.8H448c35.3 0 64 28.7 64 64V416c0 35.3-28.7 64-64 64zM184 272c-13.3 0-24 10.7-24 24s10.7 24 24 24H328c13.3 0 24-10.7 24-24s-10.7-24-24-24H184z"/>
	</symbol>
	<symbol xmlns="http://www.w3.org/2000/svg" height="1em" viewBox="0 0 128 512" id="ellipsis-vertical" u="f142">
		<!--! Font Awesome Free 6.4.2 by @fontawesome - https://fontawesome.com License - https://fontawesome.com/license (Commercial License) Copyright 2023 Fonticons, Inc. -->
		<path d="M64 360a56 56 0 1 0 0 112 56 56 0 1 0 0-112zm0-160a56 56 0 1 0 0 112 56 56 0 1 0 0-112zM120 96A56 56 0 1 0 8 96a56 56 0 1 0 112 0z"/>
	</symbol>
	<symbol xmlns="http://www.w3.org/2000/svg" height="1em" viewBox="0 0 448 512" id="ellipsis" u="f141">
		<!--! Font Awesome Free 6.4.2 by @fontawesome - https://fontawesome.com License - https://fontawesome.com/license (Commercial License) Copyright 2023 Fonticons, Inc. -->
		<path d="M8 256a56 56 0 1 1 112 0A56 56 0 1 1 8 256zm160 0a56 56 0 1 1 112 0 56 56 0 1 1 -112 0zm216-56a56 56 0 1 1 0 112 56 56 0 1 1 0-112z"/>
	</symbol>
	<symbol xmlns="http://www.w3.org/2000/svg" height="1em" viewBox="0 0 512 512" id="table-list" u="f00b">
		<!--! Font Awesome Free 6.4.2 by @fontawesome - https://fontawesome.com License - https://fontawesome.com/license (Commercial License) Copyright 2023 Fonticons, Inc. -->
		<path d="M0 96C0 60.7 28.7 32 64 32H448c35.3 0 64 28.7 64 64V416c0 35.3-28.7 64-64 64H64c-35.3 0-64-28.7-64-64V96zm64 0v64h64V96H64zm384 0H192v64H448V96zM64 224v64h64V224H64zm384 0H192v64H448V224zM64 352v64h64V352H64zm384 0H192v64H448V352z"/>
	</symbol>
	<symbol xmlns="http://www.w3.org/2000/svg" height="1em" viewBox="0 0 448 512" id="tablet-screen-button" u="f3fa">
		<!--! Font Awesome Free 6.4.2 by @fontawesome - https://fontawesome.com License - https://fontawesome.com/license (Commercial License) Copyright 2023 Fonticons, Inc. -->
		<path d="M0 64C0 28.7 28.7 0 64 0H384c35.3 0 64 28.7 64 64V448c0 35.3-28.7 64-64 64H64c-35.3 0-64-28.7-64-64V64zM256 448a32 32 0 1 0 -64 0 32 32 0 1 0 64 0zM384 64H64V384H384V64z"/>
	</symbol>
	<symbol xmlns="http://www.w3.org/2000/svg" height="1em" viewBox="0 0 512 512" id="list" u="f03a">
		<!--! Font Awesome Free 6.4.2 by @fontawesome - https://fontawesome.com License - https://fontawesome.com/license (Commercial License) Copyright 2023 Fonticons, Inc. -->
		<path d="M40 48C26.7 48 16 58.7 16 72v48c0 13.3 10.7 24 24 24H88c13.3 0 24-10.7 24-24V72c0-13.3-10.7-24-24-24H40zM192 64c-17.7 0-32 14.3-32 32s14.3 32 32 32H480c17.7 0 32-14.3 32-32s-14.3-32-32-32H192zm0 160c-17.7 0-32 14.3-32 32s14.3 32 32 32H480c17.7 0 32-14.3 32-32s-14.3-32-32-32H192zm0 160c-17.7 0-32 14.3-32 32s14.3 32 32 32H480c17.7 0 32-14.3 32-32s-14.3-32-32-32H192zM16 232v48c0 13.3 10.7 24 24 24H88c13.3 0 24-10.7 24-24V232c0-13.3-10.7-24-24-24H40c-13.3 0-24 10.7-24 24zM40 368c-13.3 0-24 10.7-24 24v48c0 13.3 10.7 24 24 24H88c13.3 0 24-10.7 24-24V392c0-13.3-10.7-24-24-24H40z"/>
	</symbol>
	<symbol xmlns="http://www.w3.org/2000/svg" height="1em" viewBox="0 0 512 512" id="folder" u="f07b">
		<!--! Font Awesome Free 6.4.2 by @fontawesome - https://fontawesome.com License - https://fontawesome.com/license (Commercial License) Copyright 2023 Fonticons, Inc. -->
		<path d="M64 480H448c35.3 0 64-28.7 64-64V160c0-35.3-28.7-64-64-64H288c-10.1 0-19.6-4.7-25.6-12.8L243.2 57.6C231.1 41.5 212.1 32 192 32H64C28.7 32 0 60.7 0 96V416c0 35.3 28.7 64 64 64z"/>
	</symbol>
	<symbol xmlns="http://www.w3.org/2000/svg" height="1em" viewBox="0 0 576 512" id="folder-open" u="f07c">
		<!--! Font Awesome Free 6.4.2 by @fontawesome - https://fontawesome.com License - https://fontawesome.com/license (Commercial License) Copyright 2023 Fonticons, Inc. -->
		<path d="M88.7 223.8L0 375.8V96C0 60.7 28.7 32 64 32H181.5c17 0 33.3 6.7 45.3 18.7l26.5 26.5c12 12 28.3 18.7 45.3 18.7H416c35.3 0 64 28.7 64 64v32H144c-22.8 0-43.8 12.1-55.3 31.8zm27.6 16.1C122.1 230 132.6 224 144 224H544c11.5 0 22 6.1 27.7 16.1s5.7 22.2-.1 32.1l-112 192C453.9 474 443.4 480 432 480H32c-11.5 0-22-6.1-27.7-16.1s-5.7-22.2 .1-32.1l112-192z"/>
	</symbol>
	<symbol xmlns="http://www.w3.org/2000/svg" height="1em" viewBox="0 0 512 512" id="folder-closed" u="e185">
		<!--! Font Awesome Free 6.4.2 by @fontawesome - https://fontawesome.com License - https://fontawesome.com/license (Commercial License) Copyright 2023 Fonticons, Inc. -->
		<path d="M448 480H64c-35.3 0-64-28.7-64-64V192H512V416c0 35.3-28.7 64-64 64zm64-320H0V96C0 60.7 28.7 32 64 32H192c20.1 0 39.1 9.5 51.2 25.6l19.2 25.6c6 8.1 15.5 12.8 25.6 12.8H448c35.3 0 64 28.7 64 64z"/>
	</symbol>
	<symbol xmlns="http://www.w3.org/2000/svg" height="1em" viewBox="0 0 448 512" id="copy" u="f0c5">
		<!--! Font Awesome Free 6.4.2 by @fontawesome - https://fontawesome.com License - https://fontawesome.com/license (Commercial License) Copyright 2023 Fonticons, Inc. -->
		<path d="M208 0H332.1c12.7 0 24.9 5.1 33.9 14.1l67.9 67.9c9 9 14.1 21.2 14.1 33.9V336c0 26.5-21.5 48-48 48H208c-26.5 0-48-21.5-48-48V48c0-26.5 21.5-48 48-48zM48 128h80v64H64V448H256V416h64v48c0 26.5-21.5 48-48 48H48c-26.5 0-48-21.5-48-48V176c0-26.5 21.5-48 48-48z"/>
	</symbol>
	<symbol xmlns="http://www.w3.org/2000/svg" height="1em" viewBox="0 0 512 512" id="paste" u="f0ea">
		<!--! Font Awesome Free 6.4.2 by @fontawesome - https://fontawesome.com License - https://fontawesome.com/license (Commercial License) Copyright 2023 Fonticons, Inc. -->
		<path d="M160 0c-23.7 0-44.4 12.9-55.4 32H48C21.5 32 0 53.5 0 80V400c0 26.5 21.5 48 48 48H192V176c0-44.2 35.8-80 80-80h48V80c0-26.5-21.5-48-48-48H215.4C204.4 12.9 183.7 0 160 0zM272 128c-26.5 0-48 21.5-48 48V448v16c0 26.5 21.5 48 48 48H464c26.5 0 48-21.5 48-48V256H416c-17.7 0-32-14.3-32-32V128H320 272zM160 40a24 24 0 1 1 0 48 24 24 0 1 1 0-48zm256 88v96h96l-96-96z"/>
	</symbol>
	<symbol xmlns="http://www.w3.org/2000/svg" height="1em" viewBox="0 0 512 512" id="scissors" u="f0c4">
		<!--! Font Awesome Free 6.4.2 by @fontawesome - https://fontawesome.com License - https://fontawesome.com/license (Commercial License) Copyright 2023 Fonticons, Inc. -->
		<path d="M256 192l-39.5-39.5c4.9-12.6 7.5-26.2 7.5-40.5C224 50.1 173.9 0 112 0S0 50.1 0 112s50.1 112 112 112c14.3 0 27.9-2.7 40.5-7.5L192 256l-39.5 39.5c-12.6-4.9-26.2-7.5-40.5-7.5C50.1 288 0 338.1 0 400s50.1 112 112 112s112-50.1 112-112c0-14.3-2.7-27.9-7.5-40.5L499.2 76.8c7.1-7.1 7.1-18.5 0-25.6c-28.3-28.3-74.1-28.3-102.4 0L256 192zm22.6 150.6L396.8 460.8c28.3 28.3 74.1 28.3 102.4 0c7.1-7.1 7.1-18.5 0-25.6L342.6 278.6l-64 64zM64 112a48 48 0 1 1 96 0 48 48 0 1 1 -96 0zm48 240a48 48 0 1 1 0 96 48 48 0 1 1 0-96z"/>
	</symbol>
	<symbol xmlns="http://www.w3.org/2000/svg" height="1em" viewBox="0 0 512 512" id="filter" u="f0b0">
		<!--! Font Awesome Free 6.4.2 by @fontawesome - https://fontawesome.com License - https://fontawesome.com/license (Commercial License) Copyright 2023 Fonticons, Inc. -->
		<path d="M3.9 54.9C10.5 40.9 24.5 32 40 32H472c15.5 0 29.5 8.9 36.1 22.9s4.6 30.5-5.2 42.5L320 320.9V448c0 12.1-6.8 23.2-17.7 28.6s-23.8 4.3-33.5-3l-64-48c-8.1-6-12.8-15.5-12.8-25.6V320.9L9 97.3C-.7 85.4-2.8 68.8 3.9 54.9z"/>
	</symbol>
	<symbol xmlns="http://www.w3.org/2000/svg" height="1em" viewBox="0 0 640 512" id="laptop-code" u="f5fc">
		<!--! Font Awesome Free 6.4.2 by @fontawesome - https://fontawesome.com License - https://fontawesome.com/license (Commercial License) Copyright 2023 Fonticons, Inc. -->
		<path d="M64 96c0-35.3 28.7-64 64-64H512c35.3 0 64 28.7 64 64V352H512V96H128V352H64V96zM0 403.2C0 392.6 8.6 384 19.2 384H620.8c10.6 0 19.2 8.6 19.2 19.2c0 42.4-34.4 76.8-76.8 76.8H76.8C34.4 480 0 445.6 0 403.2zM281 209l-31 31 31 31c9.4 9.4 9.4 24.6 0 33.9s-24.6 9.4-33.9 0l-48-48c-9.4-9.4-9.4-24.6 0-33.9l48-48c9.4-9.4 24.6-9.4 33.9 0s9.4 24.6 0 33.9zM393 175l48 48c9.4 9.4 9.4 24.6 0 33.9l-48 48c-9.4 9.4-24.6 9.4-33.9 0s-9.4-24.6 0-33.9l31-31-31-31c-9.4-9.4-9.4-24.6 0-33.9s24.6-9.4 33.9 0z"/>
	</symbol>
	<symbol xmlns="http://www.w3.org/2000/svg" height="1em" viewBox="0 0 512 512" id="shield-halved" u="f3ed">
		<!--! Font Awesome Free 6.4.2 by @fontawesome - https://fontawesome.com License - https://fontawesome.com/license (Commercial License) Copyright 2023 Fonticons, Inc. -->
		<path d="M256 0c4.6 0 9.2 1 13.4 2.9L457.7 82.8c22 9.3 38.4 31 38.3 57.2c-.5 99.2-41.3 280.7-213.6 363.2c-16.7 8-36.1 8-52.8 0C57.3 420.7 16.5 239.2 16 140c-.1-26.2 16.3-47.9 38.3-57.2L242.7 2.9C246.8 1 251.4 0 256 0zm0 66.8V444.8C394 378 431.1 230.1 432 141.4L256 66.8l0 0z"/>
	</symbol>
	<symbol xmlns="http://www.w3.org/2000/svg" height="1em" viewBox="0 0 576 512" id="keyboard" u="f11c">
		<!--! Font Awesome Free 6.4.2 by @fontawesome - https://fontawesome.com License - https://fontawesome.com/license (Commercial License) Copyright 2023 Fonticons, Inc. -->
		<path d="M64 64C28.7 64 0 92.7 0 128V384c0 35.3 28.7 64 64 64H512c35.3 0 64-28.7 64-64V128c0-35.3-28.7-64-64-64H64zm16 64h32c8.8 0 16 7.2 16 16v32c0 8.8-7.2 16-16 16H80c-8.8 0-16-7.2-16-16V144c0-8.8 7.2-16 16-16zM64 240c0-8.8 7.2-16 16-16h32c8.8 0 16 7.2 16 16v32c0 8.8-7.2 16-16 16H80c-8.8 0-16-7.2-16-16V240zm16 80h32c8.8 0 16 7.2 16 16v32c0 8.8-7.2 16-16 16H80c-8.8 0-16-7.2-16-16V336c0-8.8 7.2-16 16-16zm80-176c0-8.8 7.2-16 16-16h32c8.8 0 16 7.2 16 16v32c0 8.8-7.2 16-16 16H176c-8.8 0-16-7.2-16-16V144zm16 80h32c8.8 0 16 7.2 16 16v32c0 8.8-7.2 16-16 16H176c-8.8 0-16-7.2-16-16V240c0-8.8 7.2-16 16-16zM160 336c0-8.8 7.2-16 16-16H400c8.8 0 16 7.2 16 16v32c0 8.8-7.2 16-16 16H176c-8.8 0-16-7.2-16-16V336zM272 128h32c8.8 0 16 7.2 16 16v32c0 8.8-7.2 16-16 16H272c-8.8 0-16-7.2-16-16V144c0-8.8 7.2-16 16-16zM256 240c0-8.8 7.2-16 16-16h32c8.8 0 16 7.2 16 16v32c0 8.8-7.2 16-16 16H272c-8.8 0-16-7.2-16-16V240zM368 128h32c8.8 0 16 7.2 16 16v32c0 8.8-7.2 16-16 16H368c-8.8 0-16-7.2-16-16V144c0-8.8 7.2-16 16-16zM352 240c0-8.8 7.2-16 16-16h32c8.8 0 16 7.2 16 16v32c0 8.8-7.2 16-16 16H368c-8.8 0-16-7.2-16-16V240zM464 128h32c8.8 0 16 7.2 16 16v32c0 8.8-7.2 16-16 16H464c-8.8 0-16-7.2-16-16V144c0-8.8 7.2-16 16-16zM448 240c0-8.8 7.2-16 16-16h32c8.8 0 16 7.2 16 16v32c0 8.8-7.2 16-16 16H464c-8.8 0-16-7.2-16-16V240zm16 80h32c8.8 0 16 7.2 16 16v32c0 8.8-7.2 16-16 16H464c-8.8 0-16-7.2-16-16V336c0-8.8 7.2-16 16-16z"/>
	</symbol>
	<symbol xmlns="http://www.w3.org/2000/svg" height="1em" viewBox="0 0 512 512" id="barcode" u="f02a">
		<!--! Font Awesome Free 6.4.2 by @fontawesome - https://fontawesome.com License - https://fontawesome.com/license (Commercial License) Copyright 2023 Fonticons, Inc. -->
		<path d="M24 32C10.7 32 0 42.7 0 56V456c0 13.3 10.7 24 24 24H40c13.3 0 24-10.7 24-24V56c0-13.3-10.7-24-24-24H24zm88 0c-8.8 0-16 7.2-16 16V464c0 8.8 7.2 16 16 16s16-7.2 16-16V48c0-8.8-7.2-16-16-16zm72 0c-13.3 0-24 10.7-24 24V456c0 13.3 10.7 24 24 24h16c13.3 0 24-10.7 24-24V56c0-13.3-10.7-24-24-24H184zm96 0c-13.3 0-24 10.7-24 24V456c0 13.3 10.7 24 24 24h16c13.3 0 24-10.7 24-24V56c0-13.3-10.7-24-24-24H280zM448 56V456c0 13.3 10.7 24 24 24h16c13.3 0 24-10.7 24-24V56c0-13.3-10.7-24-24-24H472c-13.3 0-24 10.7-24 24zm-64-8V464c0 8.8 7.2 16 16 16s16-7.2 16-16V48c0-8.8-7.2-16-16-16s-16 7.2-16 16z"/>
	</symbol>



</svg>