<?xml version="1.0" encoding="utf-8"?>
<!-- Svg Vector Icons : http://www.onlinewebfonts.com/icon -->
<!DOCTYPE svg PUBLIC "-//W3C//DTD SVG 1.1//EN" "http://www.w3.org/Graphics/SVG/1.1/DTD/svg11.dtd">
<svg version="1.1" xmlns="http://www.w3.org/2000/svg" xmlns:xlink="http://www.w3.org/1999/xlink" x="0px" y="0px" viewBox="0 0 1000 1000" enable-background="new 0 0 1000 1000" xml:space="preserve">
<metadata> Svg Vector Icons : http://www.onlinewebfonts.com/icon </metadata>
<g><path d="M507.6,282.3c-124.3,0-225.7,97.9-225.7,217.8c0,119.9,101.4,217.6,225.7,217.6c124.2,0,225.5-97.7,225.5-217.6C733.2,380.1,631.8,282.3,507.6,282.3z"/><path d="M507.6,187c-178.5,0-323.7,140.4-323.7,313.1c0,172.6,145.2,313,323.7,313c178.4,0,323.6-140.4,323.6-313C831.1,327.4,686,187,507.6,187z M507.6,773.9C350.7,773.9,223,651,223,500.1c0-151,127.6-273.9,284.5-273.9C664.4,226.1,792,349,792,500.1C792,651,664.4,773.9,507.6,773.9z"/><path d="M151,120.2c-0.3,10.9-5.4,180.5-5,196.5c0,11.5-20,10.4-19.7-0.6c0.3-10.9,5-183.3,5-196.4c0-13.1-21-12.6-21.2-0.5c-0.3,12.1-4.2,186.1-5,197.7c-0.9,11.6-19.9,12-19.6-0.5c0.3-12.5,4.5-188,5.1-197.7c0.8-13.6-22-12.8-22.6-0.6c-0.4,14.6-4.2,184-5,197.7c-0.8,13.7-20,12.3-19.7-0.5c0.3-12.8,4.7-187.1,5-197.7c0.4-10.5-16.7-11.7-17.9-0.5C29,128.4,10.1,299,10,301.4c-0.7,27.1,11.3,51.7,30.5,67.9c62.9,74.7,16.9,148.1,16.5,165.7c-0.4,19.6-7.8,321.6-7.8,321.9c-0.5,18.5,14.2,33.8,32.7,34.3c18.4,0.5,33.7-14.1,34.2-32.6c0-0.3,0-0.6,0-0.6s7.2-297.8,7.8-320.6c0.5-20.5-34.8-107.2,29.2-169.3c0-0.1,0.2-0.3,0.3-0.4c15.5-14,26-33.6,28.2-55.9c0.1-1.5-9.9-178.9-10.8-191.1C169.9,108.6,151.3,109.3,151,120.2z"/><path d="M990,536.3c0.1-265.4-37.9-368.2-62.2-407.1c-10.3-16.6-37.6-30.8-39-10.4c-1.1,14.9-0.7,739.5-0.6,739.6c-0.1,18.1,14.6,32.9,32.7,32.9c18,0.1,32.8-14.6,32.7-32.8c0.1-0.3,1.5-198.4,1.5-217.6C950,631.2,920.7,555.3,990,536.3z"/></g>
</svg>