<svg width="0" height="0" class="hidden">
  <symbol xmlns="http://www.w3.org/2000/svg" viewBox="0 0 448 512" id="bars-solid">
    <path d="M0 96C0 78.3 14.3 64 32 64H416c17.7 0 32 14.3 32 32s-14.3 32-32 32H32C14.3 128 0 113.7 0 96zM0 256c0-17.7 14.3-32 32-32H416c17.7 0 32 14.3 32 32s-14.3 32-32 32H32c-17.7 0-32-14.3-32-32zM448 416c0 17.7-14.3 32-32 32H32c-17.7 0-32-14.3-32-32s14.3-32 32-32H416c17.7 0 32 14.3 32 32z"></path>
  </symbol>
  <symbol xmlns="http://www.w3.org/2000/svg" viewBox="0 0 512 512" id="magnifying-glass-solid">
    <path d="M416 208c0 45.9-14.9 88.3-40 122.7L502.6 457.4c12.5 12.5 12.5 32.8 0 45.3s-32.8 12.5-45.3 0L330.7 376c-34.4 25.2-76.8 40-122.7 40C93.1 416 0 322.9 0 208S93.1 0 208 0S416 93.1 416 208zM208 352c79.5 0 144-64.5 144-144s-64.5-144-144-144S64 128.5 64 208s64.5 144 144 144z"></path>
  </symbol>
  <symbol xmlns="http://www.w3.org/2000/svg" viewBox="0 0 512 512" id="ban-solid">
    <path d="M367.2 412.5L99.5 144.8C77.1 176.1 64 214.5 64 256c0 106 86 192 192 192c41.5 0 79.9-13.1 111.2-35.5zm45.3-45.3C434.9 335.9 448 297.5 448 256c0-106-86-192-192-192c-41.5 0-79.9 13.1-111.2 35.5L412.5 367.2zM512 256c0 141.4-114.6 256-256 256S0 397.4 0 256S114.6 0 256 0S512 114.6 512 256z"></path>
  </symbol>
  <symbol xmlns="http://www.w3.org/2000/svg" viewBox="0 0 512 512" id="power-off-solid">
    <path d="M288 32c0-17.7-14.3-32-32-32s-32 14.3-32 32V256c0 17.7 14.3 32 32 32s32-14.3 32-32V32zM143.5 120.6c13.6-11.3 15.4-31.5 4.1-45.1s-31.5-15.4-45.1-4.1C49.7 115.4 16 181.8 16 256c0 132.5 107.5 240 240 240s240-107.5 240-240c0-74.2-33.8-140.6-86.6-184.6c-13.6-11.3-33.8-9.4-45.1 4.1s-9.4 33.8 4.1 45.1c38.9 32.3 63.5 81 63.5 135.4c0 97.2-78.8 176-176 176s-176-78.8-176-176c0-54.4 24.7-103.1 63.5-135.4z"></path>
  </symbol>
  <symbol xmlns="http://www.w3.org/2000/svg" viewBox="0 0 448 512" id="trash-solid">
    <path d="M135.2 17.7L128 32H32C14.3 32 0 46.3 0 64S14.3 96 32 96H416c17.7 0 32-14.3 32-32s-14.3-32-32-32H320l-7.2-14.3C307.4 6.8 296.3 0 284.2 0H163.8c-12.1 0-23.2 6.8-28.6 17.7zM416 128H32L53.2 467c1.6 25.3 22.6 45 47.9 45H346.9c25.3 0 46.3-19.7 47.9-45L416 128z"></path>
  </symbol>
  <symbol xmlns="http://www.w3.org/2000/svg" viewBox="0 0 512 512" id="pencil-solid">
    <path d="M421.7 220.3l-11.3 11.3-22.6 22.6-205 205c-6.6 6.6-14.8 11.5-23.8 14.1L30.8 511c-8.4 2.5-17.5 .2-23.7-6.1S-1.5 489.7 1 481.2L38.7 353.1c2.6-9 7.5-17.2 14.1-23.8l205-205 22.6-22.6 11.3-11.3 33.9 33.9 62.1 62.1 33.9 33.9zM96 353.9l-9.3 9.3c-.9 .9-1.6 2.1-2 3.4l-25.3 86 86-25.3c1.3-.4 2.5-1.1 3.4-2l9.3-9.3H112c-8.8 0-16-7.2-16-16V353.9zM453.3 19.3l39.4 39.4c25 25 25 65.5 0 90.5l-14.5 14.5-22.6 22.6-11.3 11.3-33.9-33.9-62.1-62.1L314.3 67.7l11.3-11.3 22.6-22.6 14.5-14.5c25-25 65.5-25 90.5 0z"></path>
  </symbol>
  <symbol xmlns="http://www.w3.org/2000/svg" viewBox="0 0 448 512" id="plus-solid">
    <path d="M256 80c0-17.7-14.3-32-32-32s-32 14.3-32 32V224H48c-17.7 0-32 14.3-32 32s14.3 32 32 32H192V432c0 17.7 14.3 32 32 32s32-14.3 32-32V288H400c17.7 0 32-14.3 32-32s-14.3-32-32-32H256V80z"></path>
  </symbol>
  <symbol xmlns="http://www.w3.org/2000/svg" viewBox="0 0 448 512" id="floppy-disk-solid">
    <path d="M64 32C28.7 32 0 60.7 0 96V416c0 35.3 28.7 64 64 64H384c35.3 0 64-28.7 64-64V173.3c0-17-6.7-33.3-18.7-45.3L352 50.7C340 38.7 323.7 32 306.7 32H64zm0 96c0-17.7 14.3-32 32-32H288c17.7 0 32 14.3 32 32v64c0 17.7-14.3 32-32 32H96c-17.7 0-32-14.3-32-32V128zM224 416c-35.3 0-64-28.7-64-64s28.7-64 64-64s64 28.7 64 64s-28.7 64-64 64z"></path>
  </symbol>
  <symbol xmlns="http://www.w3.org/2000/svg" viewBox="0 0 320 512" id="xmark-solid">
    <path d="M310.6 150.6c12.5-12.5 12.5-32.8 0-45.3s-32.8-12.5-45.3 0L160 210.7 54.6 105.4c-12.5-12.5-32.8-12.5-45.3 0s-12.5 32.8 0 45.3L114.7 256 9.4 361.4c-12.5 12.5-12.5 32.8 0 45.3s32.8 12.5 45.3 0L160 301.3 265.4 406.6c12.5 12.5 32.8 12.5 45.3 0s12.5-32.8 0-45.3L205.3 256 310.6 150.6z"></path>
  </symbol>
  <symbol xmlns="http://www.w3.org/2000/svg" viewBox="0 0 384 512" id="file-pdf">
    <path d="M64 0C28.7 0 0 28.7 0 64V448c0 35.3 28.7 64 64 64H320c35.3 0 64-28.7 64-64V160H256c-17.7 0-32-14.3-32-32V0H64zM256 0V128H384L256 0zM64 224H88c30.9 0 56 25.1 56 56s-25.1 56-56 56H80v32c0 8.8-7.2 16-16 16s-16-7.2-16-16V320 240c0-8.8 7.2-16 16-16zm24 80c13.3 0 24-10.7 24-24s-10.7-24-24-24H80v48h8zm72-64c0-8.8 7.2-16 16-16h24c26.5 0 48 21.5 48 48v64c0 26.5-21.5 48-48 48H176c-8.8 0-16-7.2-16-16V240zm32 112h8c8.8 0 16-7.2 16-16V272c0-8.8-7.2-16-16-16h-8v96zm96-128h48c8.8 0 16 7.2 16 16s-7.2 16-16 16H304v32h32c8.8 0 16 7.2 16 16s-7.2 16-16 16H304v48c0 8.8-7.2 16-16 16s-16-7.2-16-16V304 240c0-8.8 7.2-16 16-16z"/>
  </symbol>
  <symbol xmlns="http://www.w3.org/2000/svg" viewBox="0 0 384 512" id="file-excel">
    <path d="M64 0C28.7 0 0 28.7 0 64V448c0 35.3 28.7 64 64 64H320c35.3 0 64-28.7 64-64V160H256c-17.7 0-32-14.3-32-32V0H64zM256 0V128H384L256 0zM155.7 250.2L192 302.1l36.3-51.9c7.6-10.9 22.6-13.5 33.4-5.9s13.5 22.6 5.9 33.4L221.3 344l46.4 66.2c7.6 10.9 5 25.8-5.9 33.4s-25.8 5-33.4-5.9L192 385.8l-36.3 51.9c-7.6 10.9-22.6 13.5-33.4 5.9s-13.5-22.6-5.9-33.4L162.7 344l-46.4-66.2c-7.6-10.9-5-25.8 5.9-33.4s25.8-5 33.4 5.9z"/>
  </symbol>
  <symbol xmlns="http://www.w3.org/2000/svg" viewBox="0 0 384 512" id="file-word">
    <path d="M64 0C28.7 0 0 28.7 0 64V448c0 35.3 28.7 64 64 64H320c35.3 0 64-28.7 64-64V160H256c-17.7 0-32-14.3-32-32V0H64zM256 0V128H384L256 0zM111 257.1l26.8 89.2 31.6-90.3c3.4-9.6 12.5-16.1 22.7-16.1s19.3 6.4 22.7 16.1l31.6 90.3L273 257.1c3.8-12.7 17.2-19.9 29.9-16.1s19.9 17.2 16.1 29.9l-48 160c-3 10-12.1 16.9-22.4 17.1s-19.8-6.2-23.2-16.1L192 336.6l-33.3 95.3c-3.4 9.8-12.8 16.3-23.2 16.1s-19.5-7.1-22.4-17.1l-48-160c-3.8-12.7 3.4-26.1 16.1-29.9s26.1 3.4 29.9 16.1z"/>
  </symbol>
  <symbol xmlns="http://www.w3.org/2000/svg" viewBox="0 0 384 512" id="file-csv">
    <path d="M64 0C28.7 0 0 28.7 0 64V448c0 35.3 28.7 64 64 64H320c35.3 0 64-28.7 64-64V160H256c-17.7 0-32-14.3-32-32V0H64zM256 0V128H384L256 0zM80 224H96c22.1 0 40 17.9 40 40v8c0 8.8-7.2 16-16 16s-16-7.2-16-16v-8c0-4.4-3.6-8-8-8H80c-4.4 0-8 3.6-8 8v80c0 4.4 3.6 8 8 8H96c4.4 0 8-3.6 8-8v-8c0-8.8 7.2-16 16-16s16 7.2 16 16v8c0 22.1-17.9 40-40 40H80c-22.1 0-40-17.9-40-40V264c0-22.1 17.9-40 40-40zm72 46.4c0-25.6 20.8-46.4 46.4-46.4H216c8.8 0 16 7.2 16 16s-7.2 16-16 16H198.4c-7.9 0-14.4 6.4-14.4 14.4c0 5.2 2.8 9.9 7.2 12.5l25.4 14.5c14.4 8.3 23.4 23.6 23.4 40.3c0 25.6-20.8 46.4-46.4 46.4H168c-8.8 0-16-7.2-16-16s7.2-16 16-16h25.6c7.9 0 14.4-6.4 14.4-14.4c0-5.2-2.8-9.9-7.2-12.5l-25.4-14.5C160.9 302.4 152 287 152 270.4zM280 240v31.6c0 23 5.5 45.6 16 66c10.5-20.3 16-42.9 16-66V240c0-8.8 7.2-16 16-16s16 7.2 16 16v31.6c0 34.7-10.3 68.7-29.6 97.6l-5.1 7.7c-3 4.5-8 7.1-13.3 7.1s-10.3-2.7-13.3-7.1l-5.1-7.7c-19.3-28.9-29.6-62.9-29.6-97.6V240c0-8.8 7.2-16 16-16s16 7.2 16 16z"/>
  </symbol>
  <symbol xmlns="http://www.w3.org/2000/svg" viewBox="0 0 384 512" id="file-powerpoint">
    <path d="M64 0C28.7 0 0 28.7 0 64V448c0 35.3 28.7 64 64 64H320c35.3 0 64-28.7 64-64V160H256c-17.7 0-32-14.3-32-32V0H64zM256 0V128H384L256 0zM136 240h68c42 0 76 34 76 76s-34 76-76 76H160v32c0 13.3-10.7 24-24 24s-24-10.7-24-24V368 264c0-13.3 10.7-24 24-24zm68 104c15.5 0 28-12.5 28-28s-12.5-28-28-28H160v56h44z"/>
  </symbol>
  <symbol xmlns="http://www.w3.org/2000/svg" viewBox="0 0 384 512" id="file-image">
    <path d="M64 0C28.7 0 0 28.7 0 64V448c0 35.3 28.7 64 64 64H320c35.3 0 64-28.7 64-64V160H256c-17.7 0-32-14.3-32-32V0H64zM256 0V128H384L256 0zM128 256c0 17.7-14.3 32-32 32s-32-14.3-32-32s14.3-32 32-32s32 14.3 32 32zm88 32c5.3 0 10.2 2.6 13.2 6.9l88 128c3.4 4.9 3.7 11.3 1 16.5s-8.2 8.6-14.2 8.6H216 176 128 80c-5.8 0-11.1-3.1-13.9-8.1s-2.8-11.2 .2-16.1l48-80c2.9-4.8 8.1-7.8 13.7-7.8s10.8 2.9 13.7 7.8l12.8 21.4 48.3-70.2c3-4.3 7.9-6.9 13.2-6.9z"/>
  </symbol>
  <symbol xmlns="http://www.w3.org/2000/svg" viewBox="0 0 384 512" id="file-video">
    <path d="M64 0C28.7 0 0 28.7 0 64V448c0 35.3 28.7 64 64 64H320c35.3 0 64-28.7 64-64V160H256c-17.7 0-32-14.3-32-32V0H64zM256 0V128H384L256 0zM64 288c0-17.7 14.3-32 32-32h96c17.7 0 32 14.3 32 32v96c0 17.7-14.3 32-32 32H96c-17.7 0-32-14.3-32-32V288zM300.9 397.9L256 368V304l44.9-29.9c2-1.3 4.4-2.1 6.8-2.1c6.8 0 12.3 5.5 12.3 12.3V387.7c0 6.8-5.5 12.3-12.3 12.3c-2.4 0-4.8-.7-6.8-2.1z"/>
  </symbol>
  <symbol xmlns="http://www.w3.org/2000/svg" viewBox="0 0 384 512" id="file-audio">
    <path d="M64 0C28.7 0 0 28.7 0 64V448c0 35.3 28.7 64 64 64H320c35.3 0 64-28.7 64-64V160H256c-17.7 0-32-14.3-32-32V0H64zM256 0V128H384L256 0zm2 226.3c37.1 22.4 62 63.1 62 109.7s-24.9 87.3-62 109.7c-7.6 4.6-17.4 2.1-22-5.4s-2.1-17.4 5.4-22C269.4 401.5 288 370.9 288 336s-18.6-65.5-46.5-82.3c-7.6-4.6-10-14.4-5.4-22s14.4-10 22-5.4zm-91.9 30.9c6 2.5 9.9 8.3 9.9 14.8V400c0 6.5-3.9 12.3-9.9 14.8s-12.9 1.1-17.4-3.5L113.4 376H80c-8.8 0-16-7.2-16-16V312c0-8.8 7.2-16 16-16h33.4l35.3-35.3c4.6-4.6 11.5-5.9 17.4-3.5zm51 34.9c6.6-5.9 16.7-5.3 22.6 1.3C249.8 304.6 256 319.6 256 336s-6.2 31.4-16.3 42.7c-5.9 6.6-16 7.1-22.6 1.3s-7.1-16-1.3-22.6c5.1-5.7 8.1-13.1 8.1-21.3s-3.1-15.7-8.1-21.3c-5.9-6.6-5.3-16.7 1.3-22.6z"/>
  </symbol>
  <symbol xmlns="http://www.w3.org/2000/svg" viewBox="0 0 384 512" id="file">
    <path d="M0 64C0 28.7 28.7 0 64 0H224V128c0 17.7 14.3 32 32 32H384V448c0 35.3-28.7 64-64 64H64c-35.3 0-64-28.7-64-64V64zm384 64H256V0L384 128z"/>
  </symbol>
  <symbol xmlns="http://www.w3.org/2000/svg" viewBox="0 0 320 512" id="angle-right">
    <path d="M278.6 233.4c12.5 12.5 12.5 32.8 0 45.3l-160 160c-12.5 12.5-32.8 12.5-45.3 0s-12.5-32.8 0-45.3L210.7 256 73.4 118.6c-12.5-12.5-12.5-32.8 0-45.3s32.8-12.5 45.3 0l160 160z"/>
  </symbol>
  <symbol xmlns="http://www.w3.org/2000/svg" viewBox="0 0 448 512" id="angle-up">
    <path d="M201.4 137.4c12.5-12.5 32.8-12.5 45.3 0l160 160c12.5 12.5 12.5 32.8 0 45.3s-32.8 12.5-45.3 0L224 205.3 86.6 342.6c-12.5 12.5-32.8 12.5-45.3 0s-12.5-32.8 0-45.3l160-160z"/>
  </symbol>
  <symbol xmlns="http://www.w3.org/2000/svg" viewBox="0 0 320 512" id="angle-left">
    <path d="M41.4 233.4c-12.5 12.5-12.5 32.8 0 45.3l160 160c12.5 12.5 32.8 12.5 45.3 0s12.5-32.8 0-45.3L109.3 256 246.6 118.6c12.5-12.5 12.5-32.8 0-45.3s-32.8-12.5-45.3 0l-160 160z"/>
  </symbol>
  <symbol xmlns="http://www.w3.org/2000/svg" viewBox="0 0 448 512" id="angle-down">
    <path d="M201.4 374.6c12.5 12.5 32.8 12.5 45.3 0l160-160c12.5-12.5 12.5-32.8 0-45.3s-32.8-12.5-45.3 0L224 306.7 86.6 169.4c-12.5-12.5-32.8-12.5-45.3 0s-12.5 32.8 0 45.3l160 160z"/>
  </symbol>
  <symbol xmlns="http://www.w3.org/2000/svg" viewBox="0 0 512 512" id="angles-right">
    <path d="M470.6 278.6c12.5-12.5 12.5-32.8 0-45.3l-160-160c-12.5-12.5-32.8-12.5-45.3 0s-12.5 32.8 0 45.3L402.7 256 265.4 393.4c-12.5 12.5-12.5 32.8 0 45.3s32.8 12.5 45.3 0l160-160zm-352 160l160-160c12.5-12.5 12.5-32.8 0-45.3l-160-160c-12.5-12.5-32.8-12.5-45.3 0s-12.5 32.8 0 45.3L210.7 256 73.4 393.4c-12.5 12.5-12.5 32.8 0 45.3s32.8 12.5 45.3 0z"/>
  </symbol>
  <symbol xmlns="http://www.w3.org/2000/svg" viewBox="0 0 512 512" id="angles-left">
    <path d="M41.4 233.4c-12.5 12.5-12.5 32.8 0 45.3l160 160c12.5 12.5 32.8 12.5 45.3 0s12.5-32.8 0-45.3L109.3 256 246.6 118.6c12.5-12.5 12.5-32.8 0-45.3s-32.8-12.5-45.3 0l-160 160zm352-160l-160 160c-12.5 12.5-12.5 32.8 0 45.3l160 160c12.5 12.5 32.8 12.5 45.3 0s12.5-32.8 0-45.3L301.3 256 438.6 118.6c12.5-12.5 12.5-32.8 0-45.3s-32.8-12.5-45.3 0z"/>
  </symbol>
  <symbol xmlns="http://www.w3.org/2000/svg" viewBox="0 0 448 512" id="angles-up">
    <path d="M246.6 41.4c-12.5-12.5-32.8-12.5-45.3 0l-160 160c-12.5 12.5-12.5 32.8 0 45.3s32.8 12.5 45.3 0L224 109.3 361.4 246.6c12.5 12.5 32.8 12.5 45.3 0s12.5-32.8 0-45.3l-160-160zm160 352l-160-160c-12.5-12.5-32.8-12.5-45.3 0l-160 160c-12.5 12.5-12.5 32.8 0 45.3s32.8 12.5 45.3 0L224 301.3 361.4 438.6c12.5 12.5 32.8 12.5 45.3 0s12.5-32.8 0-45.3z"/>
  </symbol>
  <symbol xmlns="http://www.w3.org/2000/svg" viewBox="0 0 448 512" id="angles-down">
    <path d="M246.6 470.6c-12.5 12.5-32.8 12.5-45.3 0l-160-160c-12.5-12.5-12.5-32.8 0-45.3s32.8-12.5 45.3 0L224 402.7 361.4 265.4c12.5-12.5 32.8-12.5 45.3 0s12.5 32.8 0 45.3l-160 160zm160-352l-160 160c-12.5 12.5-32.8 12.5-45.3 0l-160-160c-12.5-12.5-12.5-32.8 0-45.3s32.8-12.5 45.3 0L224 210.7 361.4 73.4c12.5-12.5 32.8-12.5 45.3 0s12.5 32.8 0 45.3z"/>
  </symbol>


</svg>